<svg width="33" height="18" viewBox="0 0 33 18" fill="none" xmlns="http://www.w3.org/2000/svg">
<path d="M8.09375 0.90625C3.63586 0.90625 0 4.54211 0 9C0 13.4624 3.63135 17.0938 8.09375 17.0938C11.4812 17.0938 13.5498 15.2329 15.1396 12.9385C14.6654 12.1752 14.2679 11.4209 13.875 10.6982C12.4568 13.0424 10.8669 14.7812 8.09375 14.7812C4.90503 14.7812 2.3125 12.1887 2.3125 9C2.3125 5.79321 4.88696 3.21875 8.09375 3.21875C9.96362 3.21875 11.1515 3.88721 12.249 5.02539C13.3466 6.16357 14.2725 7.80762 15.2119 9.54199C16.1514 11.2764 17.1044 13.1011 18.5 14.5645C19.8956 16.0278 21.8197 17.0938 24.2812 17.0938C28.7391 17.0938 32.375 13.4579 32.375 9C32.375 4.5376 28.7437 0.90625 24.2812 0.90625C20.9119 0.90625 18.8297 2.70837 17.2354 4.95312C17.7096 5.70288 18.1432 6.43909 18.5361 7.15723C19.9453 4.88086 21.5171 3.21875 24.2812 3.21875C27.47 3.21875 30.0625 5.81128 30.0625 9C30.0625 12.2068 27.488 14.7812 24.2812 14.7812C22.443 14.7812 21.2867 14.1128 20.1982 12.9746C19.1097 11.8364 18.1793 10.1924 17.2354 8.45801C16.2914 6.72363 15.3203 4.89893 13.9111 3.43555C12.502 1.97217 10.5779 0.90625 8.09375 0.90625Z" fill="#1D7AFC"/>
</svg>
