<svg width="6" height="6" viewBox="0 0 6 6" fill="none" xmlns="http://www.w3.org/2000/svg">
<path d="M1.072 2.88L0 2.496L0.368 1.52L1.408 1.856C1.952 2.048 2.256 2.224 2.592 2.448C2.496 2.064 2.448 1.68 2.448 1.136V0H3.488V1.136C3.488 1.68 3.44 2.08 3.36 2.448C3.664 2.24 3.984 2.048 4.528 1.856L5.584 1.504L5.952 2.496L4.864 2.88C4.352 3.056 3.936 3.12 3.584 3.168C3.92 3.456 4.16 3.696 4.448 4.128L5.088 5.088L4.224 5.68L3.584 4.768C3.248 4.304 3.088 3.936 2.944 3.6C2.832 4.016 2.624 4.4 2.352 4.768L1.68 5.68L0.816 5.088L1.456 4.128C1.776 3.68 2.032 3.44 2.352 3.168C1.904 3.104 1.552 3.056 1.072 2.88Z" fill="#E34935"/>
</svg>
