<svg width="1394" height="992" viewBox="0 0 1394 992" fill="none" xmlns="http://www.w3.org/2000/svg"
     preserveAspectRatio="none" 
>
<g filter="url(#filter0_d_170_4455)">
<path d="M1325.82 983H35C18.4315 983 5 969.569 5 953V176.955C5 170.694 8.90377 165.096 14.7796 162.933C20.6553 160.769 24.5591 155.171 24.5591 148.91V97.5043C24.5591 91.3487 20.6196 85.8839 14.7796 83.9383C8.93949 81.9926 5 76.5278 5 70.3722V37.7448C5 21.1763 18.4314 7.74481 34.9999 7.74481H1139.37C1141.01 7.74481 1142.64 7.61067 1144.26 7.34375L1180.24 1.40106C1181.85 1.13414 1183.49 1 1185.12 1H1326.22C1342.52 1 1355.84 14.0238 1356.21 30.3253L1359.38 171.317C1359.6 181.086 1365.34 189.885 1374.19 194.027C1383.23 198.258 1389 207.336 1389 217.316V233.831V292.724V332.134C1389 342.058 1383.66 351.216 1375.03 356.109C1366.47 360.957 1361.15 369.998 1361.06 379.833L1355.82 953.274C1355.67 969.735 1342.28 983 1325.82 983Z" fill="url(#paint0_radial_170_4455)" fill-opacity="0.2" shape-rendering="crispEdges"/>
<path d="M1325.82 983H35C18.4315 983 5 969.569 5 953V176.955C5 170.694 8.90377 165.096 14.7796 162.933C20.6553 160.769 24.5591 155.171 24.5591 148.91V97.5043C24.5591 91.3487 20.6196 85.8839 14.7796 83.9383C8.93949 81.9926 5 76.5278 5 70.3722V37.7448C5 21.1763 18.4314 7.74481 34.9999 7.74481H1139.37C1141.01 7.74481 1142.64 7.61067 1144.26 7.34375L1180.24 1.40106C1181.85 1.13414 1183.49 1 1185.12 1H1326.22C1342.52 1 1355.84 14.0238 1356.21 30.3253L1359.38 171.317C1359.6 181.086 1365.34 189.885 1374.19 194.027C1383.23 198.258 1389 207.336 1389 217.316V233.831V292.724V332.134C1389 342.058 1383.66 351.216 1375.03 356.109C1366.47 360.957 1361.15 369.998 1361.06 379.833L1355.82 953.274C1355.67 969.735 1342.28 983 1325.82 983Z" stroke="#E9F5FE" shape-rendering="crispEdges"/>
</g>
<defs>
<filter id="filter0_d_170_4455" x="0.5" y="0.5" width="1393" height="991" filterUnits="userSpaceOnUse" color-interpolation-filters="sRGB">
<feFlood flood-opacity="0" result="BackgroundImageFix"/>
<feColorMatrix in="SourceAlpha" type="matrix" values="0 0 0 0 0 0 0 0 0 0 0 0 0 0 0 0 0 0 127 0" result="hardAlpha"/>
<feOffset dy="4"/>
<feGaussianBlur stdDeviation="2"/>
<feComposite in2="hardAlpha" operator="out"/>
<feColorMatrix type="matrix" values="0 0 0 0 0.913725 0 0 0 0 0.94902 0 0 0 0 1 0 0 0 1 0"/>
<feBlend mode="normal" in2="BackgroundImageFix" result="effect1_dropShadow_170_4455"/>
<feBlend mode="normal" in="SourceGraphic" in2="effect1_dropShadow_170_4455" result="shape"/>
</filter>
<radialGradient id="paint0_radial_170_4455" cx="0" cy="0" r="1" gradientTransform="matrix(-825.762 355.569 -4001.12 -656.533 627.565 -35.938)" gradientUnits="userSpaceOnUse">
<stop stop-color="white"/>
<stop offset="1" stop-color="white"/>
</radialGradient>
</defs>
</svg>
