<svg width="14" height="12" viewBox="0 0 14 12" fill="none" xmlns="http://www.w3.org/2000/svg">
<path d="M13.6667 6.00013C13.6667 6.36832 13.3682 6.66679 13 6.66679H2.44668L5.50668 10.2335C5.746 10.5133 5.71317 10.9341 5.43334 11.1735C5.15352 11.4128 4.73267 11.38 4.49334 11.1001L0.493344 6.43346C0.469461 6.40023 0.449338 6.36446 0.433344 6.32679C0.413278 6.30172 0.395433 6.27496 0.38001 6.24679C0.351124 6.16766 0.335361 6.08434 0.333344 6.00013C0.335361 5.91591 0.351124 5.83259 0.38001 5.75346C0.395433 5.7253 0.413278 5.69853 0.433344 5.67346C0.449338 5.6358 0.469461 5.60002 0.493344 5.56679L4.49334 0.900127C4.73267 0.620303 5.15352 0.58747 5.43334 0.826794C5.71317 1.06612 5.746 1.48697 5.50668 1.76679L2.44668 5.33346H13C13.3682 5.33346 13.6667 5.63194 13.6667 6.00013Z" fill="#1D7AFC"/>
</svg>
