<svg width="555" height="556" viewBox="0 0 555 556" fill="none" xmlns="http://www.w3.org/2000/svg">
<g filter="url(#filter0_d_170_3231)">
<path d="M518.023 536.469L93.4085 535.799H87.3811C82.5916 535.799 77.8716 536.946 73.616 539.143L64.8783 543.656C60.6227 545.853 55.9027 547 51.1132 547H22.3341C17.1011 547 12.1482 544.636 8.85716 540.567C6.36152 537.482 5 533.634 5 529.666V283.045C5 278.382 6.35965 273.82 8.91249 269.918C11.4653 266.016 12.825 261.455 12.825 256.792V150.822C12.825 146.481 11.4559 142.251 8.91249 138.734C6.36912 135.217 5 130.987 5 126.646V42.201C5 25.6324 18.4314 12.201 35 12.201H450.512C456.568 12.201 462.483 10.3682 467.477 6.9436L468.478 6.25737C473.473 2.83279 479.387 1 485.443 1H511.5C528.069 1 541.5 14.4315 541.5 31V225.918C541.5 230.575 542.584 235.169 544.667 239.334L546.5 243L547.234 244.574C549.057 248.479 550.016 252.73 550.048 257.039L550.5 318.318V384.021V407.5L550.043 467.341C550.015 471.081 549.287 474.782 547.898 478.254L543.012 490.471C541.681 493.797 540.957 497.334 540.874 500.915L540.5 517C538.906 528.184 529.32 536.487 518.023 536.469Z" fill="url(#paint0_radial_170_3231)" fill-opacity="0.2" shape-rendering="crispEdges"/>
<path d="M518.023 536.469L93.4085 535.799H87.3811C82.5916 535.799 77.8716 536.946 73.616 539.143L64.8783 543.656C60.6227 545.853 55.9027 547 51.1132 547H22.3341C17.1011 547 12.1482 544.636 8.85716 540.567C6.36152 537.482 5 533.634 5 529.666V283.045C5 278.382 6.35965 273.82 8.91249 269.918C11.4653 266.016 12.825 261.455 12.825 256.792V150.822C12.825 146.481 11.4559 142.251 8.91249 138.734C6.36912 135.217 5 130.987 5 126.646V42.201C5 25.6324 18.4314 12.201 35 12.201H450.512C456.568 12.201 462.483 10.3682 467.477 6.9436L468.478 6.25737C473.473 2.83279 479.387 1 485.443 1H511.5C528.069 1 541.5 14.4315 541.5 31V225.918C541.5 230.575 542.584 235.169 544.667 239.334L546.5 243L547.234 244.574C549.057 248.479 550.016 252.73 550.048 257.039L550.5 318.318V384.021V407.5L550.043 467.341C550.015 471.081 549.287 474.782 547.898 478.254L543.012 490.471C541.681 493.797 540.957 497.334 540.874 500.915L540.5 517C538.906 528.184 529.32 536.487 518.023 536.469Z" stroke="#E9F5FE" shape-rendering="crispEdges"/>
</g>
<defs>
<filter id="filter0_d_170_3231" x="0.5" y="0.5" width="554.5" height="555" filterUnits="userSpaceOnUse" color-interpolation-filters="sRGB">
<feFlood flood-opacity="0" result="BackgroundImageFix"/>
<feColorMatrix in="SourceAlpha" type="matrix" values="0 0 0 0 0 0 0 0 0 0 0 0 0 0 0 0 0 0 127 0" result="hardAlpha"/>
<feOffset dy="4"/>
<feGaussianBlur stdDeviation="2"/>
<feComposite in2="hardAlpha" operator="out"/>
<feColorMatrix type="matrix" values="0 0 0 0 0.913725 0 0 0 0 0.94902 0 0 0 0 1 0 0 0 1 0"/>
<feBlend mode="normal" in2="BackgroundImageFix" result="effect1_dropShadow_170_3231"/>
<feBlend mode="normal" in="SourceGraphic" in2="effect1_dropShadow_170_3231" result="shape"/>
</filter>
<radialGradient id="paint0_radial_170_3231" cx="0" cy="0" r="1" gradientTransform="matrix(-330.362 590.487 -1600.72 -1090.29 254.068 -60.3422)" gradientUnits="userSpaceOnUse">
<stop stop-color="white"/>
<stop offset="1" stop-color="white"/>
</radialGradient>
</defs>
</svg>
