<svg width="624" height="1035" viewBox="0 0 624 1035" fill="none" xmlns="http://www.w3.org/2000/svg">
<g filter="url(#filter0_d_170_3117)">
<path d="M586.917 1004.97H107.228H102.742C95.6932 1004.97 88.8694 1007.45 83.4678 1011.98L75.1113 1018.99C69.7097 1023.52 62.8859 1026 55.8371 1026H32.4986C22.0689 1026 12.5369 1020.1 7.88579 1010.76C5.98785 1006.96 5 1002.76 5 998.501V522.881C5 519.039 5.73817 515.232 7.17436 511.668L11.8737 500.007C13.3099 496.443 14.0481 492.636 14.0481 488.794V276.103C14.0481 271.897 13.1638 267.739 11.4527 263.897L7.59534 255.236C5.88424 251.395 5 247.236 5 243.03V52.0275C5 35.4589 18.4315 22.0275 35 22.0275H517.523C526.037 22.0275 534.15 18.4097 539.84 12.0759L540.85 10.9515C546.54 4.61776 554.653 1 563.167 1H589C605.569 1 619 14.4314 619 31V599.05C619 601.877 618.6 604.69 617.813 607.406L611.298 629.869C610.51 632.584 610.111 635.397 610.111 638.225V738.281C610.111 742.118 610.847 745.919 612.278 749.478L616.774 760.653C618.244 764.306 618.98 768.212 618.941 772.149L616.915 975.272C616.751 991.723 603.368 1004.97 586.917 1004.97Z" fill="url(#paint0_radial_170_3117)" fill-opacity="0.2" shape-rendering="crispEdges"/>
<path d="M586.917 1004.97H107.228H102.742C95.6932 1004.97 88.8694 1007.45 83.4678 1011.98L75.1113 1018.99C69.7097 1023.52 62.8859 1026 55.8371 1026H32.4986C22.0689 1026 12.5369 1020.1 7.88579 1010.76C5.98785 1006.96 5 1002.76 5 998.501V522.881C5 519.039 5.73817 515.232 7.17436 511.668L11.8737 500.007C13.3099 496.443 14.0481 492.636 14.0481 488.794V276.103C14.0481 271.897 13.1638 267.739 11.4527 263.897L7.59534 255.236C5.88424 251.395 5 247.236 5 243.03V52.0275C5 35.4589 18.4315 22.0275 35 22.0275H517.523C526.037 22.0275 534.15 18.4097 539.84 12.0759L540.85 10.9515C546.54 4.61776 554.653 1 563.167 1H589C605.569 1 619 14.4314 619 31V599.05C619 601.877 618.6 604.69 617.813 607.406L611.298 629.869C610.51 632.584 610.111 635.397 610.111 638.225V738.281C610.111 742.118 610.847 745.919 612.278 749.478L616.774 760.653C618.244 764.306 618.98 768.212 618.941 772.149L616.915 975.272C616.751 991.723 603.368 1004.97 586.917 1004.97Z" stroke="#E9F5FE" shape-rendering="crispEdges"/>
</g>
<defs>
<filter id="filter0_d_170_3117" x="0.5" y="0.5" width="623" height="1034" filterUnits="userSpaceOnUse" color-interpolation-filters="sRGB">
<feFlood flood-opacity="0" result="BackgroundImageFix"/>
<feColorMatrix in="SourceAlpha" type="matrix" values="0 0 0 0 0 0 0 0 0 0 0 0 0 0 0 0 0 0 127 0" result="hardAlpha"/>
<feOffset dy="4"/>
<feGaussianBlur stdDeviation="2"/>
<feComposite in2="hardAlpha" operator="out"/>
<feColorMatrix type="matrix" values="0 0 0 0 0.913725 0 0 0 0 0.94902 0 0 0 0 1 0 0 0 1 0"/>
<feBlend mode="normal" in2="BackgroundImageFix" result="effect1_dropShadow_170_3117"/>
<feBlend mode="normal" in="SourceGraphic" in2="effect1_dropShadow_170_3117" result="shape"/>
</filter>
<radialGradient id="paint0_radial_170_3117" cx="0" cy="0" r="1" gradientTransform="matrix(-382 1108.51 -1850.93 -2046.79 293 -114.157)" gradientUnits="userSpaceOnUse">
<stop stop-color="white"/>
<stop offset="1" stop-color="white"/>
</radialGradient>
</defs>
</svg>
