<svg width="746" height="431" viewBox="0 0 746 431" fill="none" xmlns="http://www.w3.org/2000/svg">
<g filter="url(#filter0_d_346_6099)">
<path d="M705.5 422.5H124H69.5H35C18.4315 422.5 5 409.069 5 392.5V268.708V144.676C5 140.925 7.01619 137.464 10.2788 135.614C13.5414 133.764 15.5576 130.303 15.5576 126.552V78.5879C15.5576 74.9454 13.5196 71.6091 10.2788 69.9464C7.03802 68.2836 5 64.9473 5 61.3048V36.6069C5 20.0384 18.4314 6.60694 35 6.60694H614.883C617.377 6.60694 619.861 6.29589 622.278 5.68098L637.04 1.92596C639.457 1.31105 641.941 1 644.436 1H704C720.569 1 734 14.4315 734 31V113.307C734 114.752 734.171 116.193 734.509 117.598L734.975 119.532C735.387 121.243 736.222 122.823 737.403 124.129C739.079 125.982 740.042 128.372 740.118 130.87L741 159.842V192.731V204.484L740.325 237.272C740.325 240.291 739.868 243.292 738.969 246.174L736.861 252.934C735.959 255.826 735.5 258.838 735.5 261.867V272.252V392.5C735.5 409.069 722.069 422.5 705.5 422.5Z" fill="url(#paint0_radial_346_6099)" fill-opacity="0.2" shape-rendering="crispEdges"/>
<path d="M705.5 422.5H124H69.5H35C18.4315 422.5 5 409.069 5 392.5V268.708V144.676C5 140.925 7.01619 137.464 10.2788 135.614C13.5414 133.764 15.5576 130.303 15.5576 126.552V78.5879C15.5576 74.9454 13.5196 71.6091 10.2788 69.9464C7.03802 68.2836 5 64.9473 5 61.3048V36.6069C5 20.0384 18.4314 6.60694 35 6.60694H614.883C617.377 6.60694 619.861 6.29589 622.278 5.68098L637.04 1.92596C639.457 1.31105 641.941 1 644.436 1H704C720.569 1 734 14.4315 734 31V113.307C734 114.752 734.171 116.193 734.509 117.598L734.975 119.532C735.387 121.243 736.222 122.823 737.403 124.129C739.079 125.982 740.042 128.372 740.118 130.87L741 159.842V192.731V204.484L740.325 237.272C740.325 240.291 739.868 243.292 738.969 246.174L736.861 252.934C735.959 255.826 735.5 258.838 735.5 261.867V272.252V392.5C735.5 409.069 722.069 422.5 705.5 422.5Z" stroke="#E9F5FE" shape-rendering="crispEdges"/>
</g>
<defs>
<filter id="filter0_d_346_6099" x="0.5" y="0.5" width="745" height="430.5" filterUnits="userSpaceOnUse" color-interpolation-filters="sRGB">
<feFlood flood-opacity="0" result="BackgroundImageFix"/>
<feColorMatrix in="SourceAlpha" type="matrix" values="0 0 0 0 0 0 0 0 0 0 0 0 0 0 0 0 0 0 127 0" result="hardAlpha"/>
<feOffset dy="4"/>
<feGaussianBlur stdDeviation="2"/>
<feComposite in2="hardAlpha" operator="out"/>
<feColorMatrix type="matrix" values="0 0 0 0 0.913725 0 0 0 0 0.94902 0 0 0 0 1 0 0 0 1 0"/>
<feBlend mode="normal" in2="BackgroundImageFix" result="effect1_dropShadow_346_6099"/>
<feBlend mode="normal" in="SourceGraphic" in2="effect1_dropShadow_346_6099" result="shape"/>
</filter>
<radialGradient id="paint0_radial_346_6099" cx="0" cy="0" r="1" gradientTransform="matrix(-445.731 295.584 -2159.73 -545.775 341.048 -29.7066)" gradientUnits="userSpaceOnUse">
<stop stop-color="white"/>
<stop offset="1" stop-color="white"/>
</radialGradient>
</defs>
</svg>
