<svg width="686" height="536" viewBox="0 0 686 536" fill="none" xmlns="http://www.w3.org/2000/svg">
<g filter="url(#filter0_d_170_4090)">
<path d="M649.013 516.209H117.55H106.251C102.515 516.209 98.8119 516.907 95.332 518.267L78.2502 524.942C74.7703 526.302 71.0671 527 67.3309 527H24.0603C19.2248 527 14.5701 525.162 11.039 521.859C7.18647 518.255 5 513.215 5 507.94V273.445C5 268.532 6.76804 263.784 9.98087 260.068C13.1937 256.352 14.9617 251.603 14.9617 246.691V146.111C14.9617 141.484 13.1777 137.034 9.98087 133.689C6.784 130.343 5 125.894 5 121.267V41.7907C5 25.2221 18.4315 11.7907 35 11.7907H576.685C581.494 11.7907 586.232 10.6345 590.501 8.41969L598.304 4.37099C602.573 2.15615 607.312 1 612.121 1H651C667.569 1 681 14.4315 681 31V301.517C681 307.12 679.431 312.61 676.472 317.367L675.742 318.54C672.782 323.297 671.213 328.787 671.213 334.389V374.963C671.213 379.717 672.922 384.311 676.027 387.91C679.228 391.619 680.942 396.382 680.837 401.28L679.007 486.851C678.657 503.166 665.332 516.209 649.013 516.209Z" fill="url(#paint0_radial_170_4090)" fill-opacity="0.2" shape-rendering="crispEdges"/>
<path d="M649.013 516.209H117.55H106.251C102.515 516.209 98.8119 516.907 95.332 518.267L78.2502 524.942C74.7703 526.302 71.0671 527 67.3309 527H24.0603C19.2248 527 14.5701 525.162 11.039 521.859C7.18647 518.255 5 513.215 5 507.94V273.445C5 268.532 6.76804 263.784 9.98087 260.068C13.1937 256.352 14.9617 251.603 14.9617 246.691V146.111C14.9617 141.484 13.1777 137.034 9.98087 133.689C6.784 130.343 5 125.894 5 121.267V41.7907C5 25.2221 18.4315 11.7907 35 11.7907H576.685C581.494 11.7907 586.232 10.6345 590.501 8.41969L598.304 4.37099C602.573 2.15615 607.312 1 612.121 1H651C667.569 1 681 14.4315 681 31V301.517C681 307.12 679.431 312.61 676.472 317.367L675.742 318.54C672.782 323.297 671.213 328.787 671.213 334.389V374.963C671.213 379.717 672.922 384.311 676.027 387.91C679.228 391.619 680.942 396.382 680.837 401.28L679.007 486.851C678.657 503.166 665.332 516.209 649.013 516.209Z" stroke="#E9F5FE" shape-rendering="crispEdges"/>
</g>
<defs>
<filter id="filter0_d_170_4090" x="0.5" y="0.5" width="685" height="535" filterUnits="userSpaceOnUse" color-interpolation-filters="sRGB">
<feFlood flood-opacity="0" result="BackgroundImageFix"/>
<feColorMatrix in="SourceAlpha" type="matrix" values="0 0 0 0 0 0 0 0 0 0 0 0 0 0 0 0 0 0 127 0" result="hardAlpha"/>
<feOffset dy="4"/>
<feGaussianBlur stdDeviation="2"/>
<feComposite in2="hardAlpha" operator="out"/>
<feColorMatrix type="matrix" values="0 0 0 0 0.913725 0 0 0 0 0.94902 0 0 0 0 1 0 0 0 1 0"/>
<feBlend mode="normal" in2="BackgroundImageFix" result="effect1_dropShadow_170_4090"/>
<feBlend mode="normal" in="SourceGraphic" in2="effect1_dropShadow_170_4090" result="shape"/>
</filter>
<radialGradient id="paint0_radial_170_4090" cx="0" cy="0" r="1" gradientTransform="matrix(-420.573 568.857 -2037.83 -1050.35 322.081 -58.0952)" gradientUnits="userSpaceOnUse">
<stop stop-color="white"/>
<stop offset="1" stop-color="white"/>
</radialGradient>
</defs>
</svg>
