<svg width="18" height="18" viewBox="0 0 18 18" fill="none" xmlns="http://www.w3.org/2000/svg">
<path d="M8.99984 1.91675C5.09409 1.91675 1.9165 5.09433 1.9165 9.00008C1.9165 12.9058 5.09409 16.0834 8.99984 16.0834C12.9056 16.0834 16.0832 12.9058 16.0832 9.00008C16.0832 5.09433 12.9056 1.91675 8.99984 1.91675ZM8.99984 14.6667C5.87538 14.6667 3.33317 12.1245 3.33317 9.00008C3.33317 5.87562 5.87538 3.33341 8.99984 3.33341C12.1243 3.33341 14.6665 5.87562 14.6665 9.00008C14.6665 12.1245 12.1243 14.6667 8.99984 14.6667Z" fill="#D97008"/>
<path d="M9.70817 5.45825H8.2915V9.70825H12.5415V8.29158H9.70817V5.45825Z" fill="#D97008"/>
</svg>
