<svg width="17" height="18" viewBox="0 0 17 18" fill="none" xmlns="http://www.w3.org/2000/svg">
<path d="M8.49984 1.91663C12.3957 1.91663 15.5832 5.10413 15.5832 8.99996C15.5832 12.8958 12.3957 16.0833 8.49984 16.0833C4.604 16.0833 1.4165 12.8958 1.4165 8.99996C1.4165 5.10413 4.604 1.91663 8.49984 1.91663ZM8.49984 3.33329C7.154 3.33329 5.94984 3.75829 5.029 4.53746L12.9623 12.4708C13.6707 11.4791 14.1665 10.275 14.1665 8.99996C14.1665 5.88329 11.6165 3.33329 8.49984 3.33329ZM11.9707 13.4625L4.03734 5.52913C3.25817 6.44996 2.83317 7.65413 2.83317 8.99996C2.83317 12.1166 5.38317 14.6666 8.49984 14.6666C9.84567 14.6666 11.0498 14.2416 11.9707 13.4625Z" fill="#E34935"/>
</svg>
