<svg width="16" height="16" viewBox="0 0 16 16" fill="none" xmlns="http://www.w3.org/2000/svg">
<path fill-rule="evenodd" clip-rule="evenodd" d="M5.91827 10.4943C5.54747 10.4943 5.33059 10.4943 5.25363 9.79467L13.0543 9.2C14.1502 9.11574 14.9955 8.20028 14.9922 7.10117V2.79856C14.9931 2.43052 14.7087 2.12471 14.3416 2.09895L3.92437 1.39934L3.79844 0.587787C3.74302 0.245636 3.44542 -0.00434743 3.09883 0.000113302H1.69961C1.31323 0.000113302 1 0.31334 1 0.699724C1 1.08611 1.31323 1.39934 1.69961 1.39934H2.50416L3.79844 9.15102C3.79844 9.96957 3.83342 11.4807 5.28862 11.8235C5.25194 11.9605 5.23313 12.1016 5.23265 12.2433C5.23265 13.2093 6.01571 13.9923 6.98167 13.9923C7.94764 13.9923 8.7307 13.2093 8.7307 12.2433C8.72982 12.1259 8.71811 12.0088 8.69572 11.8935H11.5291C11.5068 12.0088 11.495 12.1259 11.4942 12.2433C11.4905 13.0941 12.0995 13.824 12.9371 13.9729C13.7748 14.1218 14.598 13.6463 14.8877 12.8464C15.1774 12.0465 14.8494 11.1541 14.1107 10.7321C13.9797 10.583 13.7915 10.4965 13.593 10.4943H5.91827ZM13.2431 12.5932C13.05 12.5932 12.8933 12.4366 12.8933 12.2434C12.8933 12.0502 13.05 11.8936 13.2431 11.8936C13.4363 11.8936 13.593 12.0502 13.593 12.2434C13.593 12.4366 13.4363 12.5932 13.2431 12.5932ZM6.59684 12.2434C6.59684 12.4366 6.75346 12.5932 6.94665 12.5932C7.13984 12.5932 7.29645 12.4366 7.29645 12.2434C7.29645 12.0502 7.13984 11.8936 6.94665 11.8936C6.75346 11.8936 6.59684 12.0502 6.59684 12.2434ZM13.5929 7.10114C13.5941 7.46668 13.3137 7.77151 12.9493 7.80075L5.14165 8.39542H5.09267L4.16219 2.79853L13.5929 3.45616V7.10114Z" fill="#071F41"/>
</svg>
