<svg width="168" height="539" viewBox="0 0 168 539" fill="none" xmlns="http://www.w3.org/2000/svg">
<path d="M62.2251 1C68.3821 1 71.992 3.21236 74.0014 4.29102L74.0356 4.30957L74.0679 4.33398L94.6128 19.9355C97.5472 21.7713 99.8489 22.4182 102.587 22.6143C103.972 22.7134 105.472 22.6973 107.236 22.6553C108.994 22.6133 111.011 22.5459 113.402 22.5459H113.417L149.041 23.624H149.057L149.074 23.626C151.954 23.9071 156.209 25.525 159.745 29.4307C163.289 33.3468 166.082 39.5321 166.083 48.9014V274.559H166.068V509.431L166.08 509.849C166.171 514.249 165.108 520.971 161.606 526.744C157.974 532.731 151.721 537.685 141.499 537.96H104.86C98.703 537.96 95.0929 535.748 93.0835 534.669L93.0493 534.65L93.0171 534.626L72.4722 519.024C69.5377 517.189 67.2362 516.542 64.4975 516.346C63.1128 516.247 61.6129 516.263 59.8491 516.305C58.0904 516.347 56.074 516.414 53.6831 516.414H53.6675L18.0444 515.336H18.0278L18.0112 515.334C15.1313 515.053 10.8754 513.435 7.34032 509.529C3.79592 505.613 1.00254 499.428 1.00243 490.059V273.559H1.01707V29.5293L1.00536 29.1113C0.913617 24.7111 1.97676 17.9891 5.47899 12.2158C9.11115 6.22867 15.3634 1.27453 25.5864 1H62.2251Z" fill="url(#paint0_linear_170_3103)"/>
<path d="M74.0014 4.29102L74.4785 3.41215L74.4744 3.40993L74.0014 4.29102ZM74.0356 4.30957L74.6395 3.51248L74.5792 3.4668L74.5127 3.43072L74.0356 4.30957ZM74.0679 4.33398L74.6726 3.53759L74.6717 3.53689L74.0679 4.33398ZM94.6128 19.9355L94.008 20.7319L94.0441 20.7593L94.0824 20.7833L94.6128 19.9355ZM102.587 22.6143L102.516 23.6117L102.516 23.6117L102.587 22.6143ZM107.236 22.6553L107.26 23.655L107.236 22.6553ZM113.402 22.5459V21.5459V22.5459ZM113.417 22.5459L113.448 21.5464L113.433 21.5459H113.417V22.5459ZM149.041 23.624L149.01 24.6236L149.025 24.624H149.041V23.624ZM149.057 23.624L149.174 22.6309L149.116 22.624H149.057V23.624ZM149.074 23.626L148.957 24.6191L148.967 24.6203L148.977 24.6212L149.074 23.626ZM159.745 29.4307L160.486 28.7596L160.486 28.7596L159.745 29.4307ZM166.083 48.9014H167.083V48.9014L166.083 48.9014ZM166.083 274.559V275.559H167.083V274.559H166.083ZM166.068 274.559V273.559H165.068V274.559H166.068ZM166.068 509.431H165.068V509.445L165.068 509.459L166.068 509.431ZM166.08 509.849L167.079 509.828L167.079 509.821L166.08 509.849ZM161.606 526.744L162.461 527.263L161.606 526.744ZM141.499 537.96V538.96H141.512L141.525 538.96L141.499 537.96ZM104.86 537.96L104.86 538.96H104.86V537.96ZM93.0835 534.669L92.6064 535.548L92.6105 535.55L93.0835 534.669ZM93.0493 534.65L92.4454 535.448L92.5057 535.493L92.5722 535.529L93.0493 534.65ZM93.0171 534.626L92.4123 535.422L92.4132 535.423L93.0171 534.626ZM72.4722 519.024L73.0769 518.228L73.0409 518.201L73.0025 518.177L72.4722 519.024ZM64.4975 516.346L64.5689 515.348H64.5689L64.4975 516.346ZM59.8491 516.305L59.8253 515.305L59.8491 516.305ZM53.6831 516.414V517.414V516.414ZM53.6675 516.414L53.6372 517.414L53.6523 517.414H53.6675V516.414ZM18.0444 515.336L18.0747 514.336L18.0595 514.336H18.0444V515.336ZM18.0278 515.336L17.911 516.329L17.9692 516.336H18.0278V515.336ZM18.0112 515.334L18.1281 514.341L18.1182 514.34L18.1084 514.339L18.0112 515.334ZM7.34032 509.529L6.5989 510.2L6.59893 510.2L7.34032 509.529ZM1.00243 490.059H0.00242615H1.00243ZM1.00243 273.559V272.559H0.00242615V273.559H1.00243ZM1.01707 273.559V274.559H2.01707V273.559H1.01707ZM1.01707 29.5293H2.01707V29.5153L2.01668 29.5013L1.01707 29.5293ZM1.00536 29.1113L0.00554729 29.1322L0.00574863 29.1394L1.00536 29.1113ZM5.47899 12.2158L4.62402 11.6971L4.62401 11.6972L5.47899 12.2158ZM25.5864 1V0H25.573L25.5596 0.00036037L25.5864 1ZM62.2251 1V2C68.1094 2 71.5242 4.09621 73.5285 5.1721L74.0014 4.29102L74.4744 3.40993C72.4598 2.3285 68.6547 0 62.2251 0V1ZM74.0014 4.29102L73.5244 5.16987L73.5585 5.18842L74.0356 4.30957L74.5127 3.43072L74.4785 3.41216L74.0014 4.29102ZM74.0356 4.30957L73.4318 5.10666L73.464 5.13108L74.0679 4.33398L74.6717 3.53689L74.6395 3.51248L74.0356 4.30957ZM74.0679 4.33398L73.4631 5.13038L94.008 20.7319L94.6128 19.9355L95.2176 19.1392L74.6726 3.53759L74.0679 4.33398ZM94.6128 19.9355L94.0824 20.7833C97.1579 22.7073 99.6176 23.4042 102.516 23.6117L102.587 22.6143L102.659 21.6168C100.08 21.4322 97.9365 20.8352 95.1431 19.0878L94.6128 19.9355ZM102.587 22.6143L102.516 23.6117C103.953 23.7146 105.496 23.6971 107.26 23.655L107.236 22.6553L107.212 21.6556C105.448 21.6976 103.991 21.7122 102.659 21.6168L102.587 22.6143ZM107.236 22.6553L107.26 23.655C109.029 23.6128 111.027 23.5459 113.402 23.5459V22.5459V21.5459C110.995 21.5459 108.96 21.6138 107.212 21.6556L107.236 22.6553ZM113.402 22.5459V23.5459H113.417V22.5459V21.5459H113.402V22.5459ZM113.417 22.5459L113.387 23.5454L149.01 24.6236L149.041 23.624L149.071 22.6245L113.448 21.5464L113.417 22.5459ZM149.041 23.624V24.624H149.057V23.624V22.624H149.041V23.624ZM149.057 23.624L148.94 24.6172L148.957 24.6191L149.074 23.626L149.191 22.6328L149.174 22.6309L149.057 23.624ZM149.074 23.626L148.977 24.6212C151.616 24.8788 155.64 26.3855 159.003 30.1017L159.745 29.4307L160.486 28.7596C156.779 24.6644 152.292 22.9353 149.171 22.6307L149.074 23.626ZM159.745 29.4307L159.003 30.1017C162.357 33.8075 165.082 39.7419 165.083 48.9014L166.083 48.9014L167.083 48.9014C167.082 39.3223 164.221 32.8861 160.486 28.7596L159.745 29.4307ZM166.083 48.9014H165.083V274.559H166.083H167.083V48.9014H166.083ZM166.083 274.559V273.559H166.068V274.559V275.559H166.083V274.559ZM166.068 274.559H165.068V509.431H166.068H167.068V274.559H166.068ZM166.068 509.431L165.068 509.459L165.08 509.877L166.08 509.849L167.079 509.821L167.067 509.403L166.068 509.431ZM166.08 509.849L165.08 509.869C165.168 514.127 164.133 520.651 160.751 526.225L161.606 526.744L162.461 527.263C166.084 521.291 167.174 514.371 167.079 509.828L166.08 509.849ZM161.606 526.744L160.751 526.225C157.276 531.954 151.319 536.696 141.472 536.96L141.499 537.96L141.525 538.96C152.124 538.675 158.672 533.509 162.461 527.263L161.606 526.744ZM141.499 537.96V536.96H104.86V537.96V538.96H141.499V537.96ZM104.86 537.96L104.86 536.96C98.9756 536.96 95.5607 534.864 93.5564 533.788L93.0835 534.669L92.6105 535.55C94.6251 536.631 98.4303 538.96 104.86 538.96L104.86 537.96ZM93.0835 534.669L93.5606 533.79L93.5264 533.772L93.0493 534.65L92.5722 535.529L92.6064 535.548L93.0835 534.669ZM93.0493 534.65L93.6532 533.853L93.6209 533.829L93.0171 534.626L92.4132 535.423L92.4454 535.448L93.0493 534.65ZM93.0171 534.626L93.6218 533.83L73.0769 518.228L72.4722 519.024L71.8674 519.821L92.4123 535.422L93.0171 534.626ZM72.4722 519.024L73.0025 518.177C69.9269 516.253 67.4674 515.556 64.5689 515.348L64.4975 516.346L64.4261 517.343C67.005 517.528 69.1484 518.125 71.9418 519.872L72.4722 519.024ZM64.4975 516.346L64.5689 515.348C63.1316 515.245 61.5891 515.263 59.8253 515.305L59.8491 516.305L59.873 517.304C61.6368 517.262 63.0939 517.248 64.4262 517.343L64.4975 516.346ZM59.8491 516.305L59.8253 515.305C58.0564 515.347 56.0584 515.414 53.6831 515.414V516.414V517.414C56.0896 517.414 58.1245 517.346 59.873 517.304L59.8491 516.305ZM53.6831 516.414V515.414H53.6675V516.414V517.414H53.6831V516.414ZM53.6675 516.414L53.6977 515.414L18.0747 514.336L18.0444 515.336L18.0142 516.336L53.6372 517.414L53.6675 516.414ZM18.0444 515.336V514.336H18.0278V515.336V516.336H18.0444V515.336ZM18.0278 515.336L18.1447 514.343L18.1281 514.341L18.0112 515.334L17.8944 516.327L17.911 516.329L18.0278 515.336ZM18.0112 515.334L18.1084 514.339C15.4693 514.081 11.4453 512.574 8.08171 508.858L7.34032 509.529L6.59893 510.2C10.3055 514.295 14.7934 516.025 17.9141 516.329L18.0112 515.334ZM7.34032 509.529L8.08173 508.858C4.72774 505.153 2.00253 499.218 2.00243 490.059H1.00243H0.00242615C0.00253934 499.638 2.8641 506.074 6.5989 510.2L7.34032 509.529ZM1.00243 490.059H2.00243V273.559H1.00243H0.00242615V490.059H1.00243ZM1.00243 273.559V274.559H1.01707V273.559V272.559H1.00243V273.559ZM1.01707 273.559H2.01707V29.5293H1.01707H0.0170746V273.559H1.01707ZM1.01707 29.5293L2.01668 29.5013L2.00496 29.0833L1.00536 29.1113L0.00574863 29.1394L0.0174674 29.5573L1.01707 29.5293ZM1.00536 29.1113L2.00514 29.0905C1.91638 24.8334 2.95201 18.3095 6.33397 12.7345L5.47899 12.2158L4.62401 11.6972C1.0015 17.6687 -0.0891505 24.5887 0.00557309 29.1322L1.00536 29.1113ZM5.47899 12.2158L6.33396 12.7345C9.80916 7.00608 15.7659 2.26409 25.6133 1.99964L25.5864 1L25.5596 0.00036037C14.961 0.284981 8.41314 5.45126 4.62402 11.6971L5.47899 12.2158ZM25.5864 1V2H62.2251V1V0H25.5864V1Z" fill="#E6E6E6"/>
<defs>
<linearGradient id="paint0_linear_170_3103" x1="83.543" y1="1" x2="83.543" y2="538" gradientUnits="userSpaceOnUse">
<stop stop-color="#E9F5FE"/>
<stop offset="1" stop-color="#F9FAFC"/>
</linearGradient>
</defs>
</svg>
