<svg width="14" height="14" viewBox="0 0 14 14" fill="none" xmlns="http://www.w3.org/2000/svg">
<path d="M11.9583 0.625H2.04167C1.66594 0.625 1.30561 0.774255 1.03993 1.03993C0.774255 1.30561 0.625 1.66594 0.625 2.04167V11.9583C0.625 12.3341 0.774255 12.6944 1.03993 12.9601C1.30561 13.2257 1.66594 13.375 2.04167 13.375H11.9583C12.3341 13.375 12.6944 13.2257 12.9601 12.9601C13.2257 12.6944 13.375 12.3341 13.375 11.9583V2.04167C13.375 1.66594 13.2257 1.30561 12.9601 1.03993C12.6944 0.774255 12.3341 0.625 11.9583 0.625ZM11.9583 2.04167V11.9583H2.04167V2.04167H11.9583ZM5.58333 10.5417L2.75 7.70833L3.74875 6.7025L5.58333 8.53708L10.2512 3.86917L11.25 4.875" fill="white"/>
</svg>
