<svg width="24" height="24" viewBox="0 0 24 24" fill="none" xmlns="http://www.w3.org/2000/svg">
<path d="M9.83986 17.08C9.70852 17.0801 9.57845 17.0543 9.45712 17.004C9.33578 16.9537 9.22559 16.88 9.13286 16.787L5.29302 12.9471C5.1993 12.8545 5.12482 12.7442 5.07386 12.6227C5.0229 12.5012 4.99648 12.3707 4.9961 12.239C4.99572 12.1072 5.0214 11.9766 5.07165 11.8548C5.12191 11.7329 5.19575 11.6223 5.28894 11.5291C5.38212 11.4359 5.49281 11.362 5.61464 11.3118C5.73646 11.2615 5.86702 11.2358 5.99881 11.2362C6.1306 11.2366 6.26101 11.263 6.38255 11.3139C6.50409 11.3649 6.61436 11.4394 6.70702 11.5331L9.83986 14.6659L17.293 7.21277C17.4807 7.0259 17.7348 6.9211 17.9996 6.92139C18.2645 6.92167 18.5184 7.027 18.7056 7.21428C18.8929 7.40155 18.9982 7.65546 18.9985 7.92029C18.9987 8.18512 18.8939 8.43923 18.707 8.62688L10.5469 16.787C10.4541 16.88 10.3439 16.9538 10.2226 17.004C10.1013 17.0543 9.97119 17.0801 9.83986 17.08Z" fill="white"/>
</svg>
