<svg width="56" height="56" viewBox="0 0 56 56" fill="none" xmlns="http://www.w3.org/2000/svg">
<path d="M35.57 19.012L23.6295 31.052L19.037 26.432C18.7875 26.1389 18.4805 25.9008 18.1351 25.7328C17.7898 25.5647 17.4137 25.4703 17.0304 25.4554C16.6471 25.4405 16.2648 25.5054 15.9077 25.6462C15.5505 25.787 15.2261 26.0005 14.9548 26.2734C14.6836 26.5462 14.4713 26.8726 14.3314 27.2319C14.1915 27.5912 14.1269 27.9757 14.1417 28.3613C14.1565 28.747 14.2504 29.1253 14.4175 29.4727C14.5845 29.8201 14.8212 30.129 15.1125 30.38L21.6534 36.988C21.9134 37.2475 22.2219 37.4528 22.561 37.5921C22.9001 37.7315 23.2632 37.8021 23.6295 37.8C24.3597 37.7969 25.0594 37.5053 25.5779 36.988L39.4945 22.988C39.7554 22.7277 39.9625 22.418 40.1038 22.0768C40.2451 21.7356 40.3178 21.3696 40.3178 21C40.3178 20.6304 40.2451 20.2644 40.1038 19.9232C39.9625 19.582 39.7554 19.2723 39.4945 19.012C38.973 18.4905 38.2676 18.1978 37.5323 18.1978C36.797 18.1978 36.0915 18.4905 35.57 19.012ZM27.9994 0C22.4944 0 17.1132 1.64217 12.536 4.71885C7.95882 7.79553 4.39135 12.1685 2.28471 17.2849C0.178075 22.4012 -0.373117 28.0311 0.700838 33.4625C1.77479 38.894 4.42566 43.8831 8.31822 47.799C12.2108 51.7148 17.1702 54.3816 22.5693 55.462C27.9685 56.5424 33.5648 55.9879 38.6507 53.8686C43.7366 51.7494 48.0836 48.1605 51.1419 43.556C54.2003 38.9514 55.8327 33.5379 55.8327 28C55.8327 24.323 55.1128 20.682 53.714 17.2849C52.3152 13.8877 50.2651 10.801 47.6805 8.20101C45.0959 5.60097 42.0276 3.5385 38.6507 2.13137C35.2738 0.724241 31.6545 0 27.9994 0ZM27.9994 50.4C23.5954 50.4 19.2904 49.0862 15.6287 46.6249C11.9669 44.1636 9.11295 40.6652 7.42764 36.5721C5.74233 32.479 5.30138 27.9751 6.16054 23.63C7.01971 19.2848 9.1404 15.2935 12.2544 12.1608C15.3685 9.02811 19.336 6.89472 23.6553 6.03041C27.9747 5.1661 32.4517 5.60969 36.5204 7.3051C40.5891 9.0005 44.0667 11.8716 46.5134 15.5552C48.9601 19.2389 50.266 23.5697 50.266 28C50.266 33.9408 47.9201 39.6384 43.7443 43.8392C39.5685 48.04 33.9048 50.4 27.9994 50.4Z" fill="#46CE9A"/>
</svg>
