<svg width="20" height="21" viewBox="0 0 20 21" fill="none" xmlns="http://www.w3.org/2000/svg">
<path d="M4.16667 0.5C3.0616 0.5 2.00179 0.938987 1.22039 1.72039C0.438987 2.50179 0 3.5616 0 4.66667V16.3333C0 17.4384 0.438987 18.4982 1.22039 19.2796C2.00179 20.061 3.0616 20.5 4.16667 20.5H15.8333C16.9384 20.5 17.9982 20.061 18.7796 19.2796C19.561 18.4982 20 17.4384 20 16.3333V4.66667C20 3.5616 19.561 2.50179 18.7796 1.72039C17.9982 0.938987 16.9384 0.5 15.8333 0.5H4.16667ZM14.7567 8.59L8.92333 14.4233C8.84592 14.5009 8.75396 14.5625 8.65272 14.6045C8.55148 14.6465 8.44295 14.6682 8.33333 14.6682C8.22372 14.6682 8.11519 14.6465 8.01394 14.6045C7.9127 14.5625 7.82074 14.5009 7.74333 14.4233L5.24333 11.9233C5.16585 11.8459 5.10439 11.7539 5.06246 11.6526C5.02053 11.5514 4.99895 11.4429 4.99895 11.3333C4.99895 11.2238 5.02053 11.1153 5.06246 11.014C5.10439 10.9128 5.16585 10.8208 5.24333 10.7433C5.39981 10.5869 5.61204 10.4989 5.83333 10.4989C5.94291 10.4989 6.05141 10.5205 6.15264 10.5625C6.25387 10.6044 6.34585 10.6659 6.42333 10.7433L8.33333 12.655L13.5767 7.41C13.7331 7.25352 13.9454 7.16561 14.1667 7.16561C14.388 7.16561 14.6002 7.25352 14.7567 7.41C14.9131 7.56648 15.0011 7.77871 15.0011 8C15.0011 8.22129 14.9131 8.43352 14.7567 8.59Z" fill="#22A06B"/>
</svg>
