<svg width="14" height="14" viewBox="0 0 14 14" fill="none" xmlns="http://www.w3.org/2000/svg">
<path d="M9.17463 12.8332H4.82529C4.6706 12.8331 4.52225 12.7717 4.41288 12.6623L1.33754 9.58692C1.22815 9.47754 1.16667 9.3292 1.16663 9.1745V4.82517C1.16667 4.67048 1.22815 4.52213 1.33754 4.41275L4.41288 1.33742C4.52225 1.22802 4.6706 1.16655 4.82529 1.1665H9.17463C9.32932 1.16655 9.47767 1.22802 9.58704 1.33742L12.6624 4.41275C12.7718 4.52213 12.8333 4.67048 12.8333 4.82517V9.1745C12.8333 9.3292 12.7718 9.47754 12.6624 9.58692L9.58704 12.6623C9.47767 12.7717 9.32932 12.8331 9.17463 12.8332Z" fill="#1D7AFC"/>
<path d="M6.99996 9.91667C7.32213 9.91667 7.58329 9.6555 7.58329 9.33333C7.58329 9.01117 7.32213 8.75 6.99996 8.75C6.67779 8.75 6.41663 9.01117 6.41663 9.33333C6.41663 9.6555 6.67779 9.91667 6.99996 9.91667Z" fill="white"/>
<path d="M6.99996 7.5835C6.84525 7.5835 6.69688 7.52204 6.58748 7.41264C6.47808 7.30325 6.41663 7.15487 6.41663 7.00016V4.66683C6.41663 4.51212 6.47808 4.36375 6.58748 4.25435C6.69688 4.14495 6.84525 4.0835 6.99996 4.0835C7.15467 4.0835 7.30304 4.14495 7.41244 4.25435C7.52183 4.36375 7.58329 4.51212 7.58329 4.66683V7.00016C7.58329 7.15487 7.52183 7.30325 7.41244 7.41264C7.30304 7.52204 7.15467 7.5835 6.99996 7.5835Z" fill="white"/>
</svg>
