<svg width="32" height="32" viewBox="0 0 32 32" fill="none" xmlns="http://www.w3.org/2000/svg">
<path d="M10.6667 14.6666H21.3334C21.5303 14.6653 21.7245 14.6204 21.902 14.5351C22.0796 14.4498 22.236 14.3262 22.3601 14.1733C22.4904 14.0233 22.5856 13.8461 22.6386 13.6547C22.6917 13.4632 22.7013 13.2623 22.6667 13.0666L21.3334 6.39995C21.271 6.09424 21.1035 5.82008 20.8599 5.62518C20.6162 5.43028 20.312 5.32699 20 5.33328H12C11.6881 5.32699 11.3839 5.43028 11.1402 5.62518C10.8966 5.82008 10.7291 6.09424 10.6667 6.39995L9.33338 13.0666C9.29522 13.2603 9.30054 13.46 9.34896 13.6514C9.39738 13.8428 9.4877 14.021 9.61338 14.1733C9.74028 14.3297 9.90098 14.4554 10.0834 14.5409C10.2659 14.6263 10.4653 14.6693 10.6667 14.6666ZM13.0934 7.99995H18.9067L19.7067 11.9999H12.2934L13.0934 7.99995ZM29.3334 18.3999C29.271 18.0942 29.1035 17.8201 28.8599 17.6252C28.6162 17.4303 28.312 17.327 28 17.3333H20C19.6881 17.327 19.3839 17.4303 19.1402 17.6252C18.8966 17.8201 18.729 18.0942 18.6667 18.3999L17.3334 25.0666C17.2952 25.2603 17.3005 25.46 17.349 25.6514C17.3974 25.8428 17.4877 26.021 17.6134 26.1733C17.7403 26.3297 17.901 26.4554 18.0834 26.5409C18.2659 26.6263 18.4653 26.6693 18.6667 26.6666H29.3334C29.5303 26.6653 29.7245 26.6204 29.902 26.5351C30.0796 26.4498 30.236 26.3262 30.3601 26.1733C30.4904 26.0233 30.5856 25.8461 30.6386 25.6547C30.6917 25.4632 30.7013 25.2623 30.6667 25.0666L29.3334 18.3999ZM20.2934 23.9999L21.0934 19.9999H26.9067L27.7067 23.9999H20.2934ZM12 17.3333H4.00005C3.68812 17.327 3.38386 17.4303 3.14024 17.6252C2.89661 17.8201 2.72905 18.0942 2.66672 18.3999L1.33338 25.0666C1.29522 25.2603 1.30054 25.46 1.34896 25.6514C1.39738 25.8428 1.4877 26.021 1.61338 26.1733C1.74028 26.3297 1.90098 26.4554 2.08342 26.5409C2.26585 26.6263 2.46528 26.6693 2.66672 26.6666H13.3334C13.5303 26.6653 13.7245 26.6204 13.902 26.5351C14.0796 26.4498 14.236 26.3262 14.36 26.1733C14.4904 26.0233 14.5856 25.8461 14.6386 25.6547C14.6917 25.4632 14.7013 25.2623 14.6667 25.0666L13.3334 18.3999C13.271 18.0942 13.1035 17.8201 12.8599 17.6252C12.6162 17.4303 12.312 17.327 12 17.3333ZM4.29338 23.9999L5.09338 19.9999H10.9067L11.7067 23.9999H4.29338Z" fill="#1D7AFC"/>
</svg>
