<svg width="16" height="16" viewBox="0 0 16 16" fill="none" xmlns="http://www.w3.org/2000/svg">
<path d="M8 1.33337C6.29092 1.33825 4.64899 1.99932 3.41333 3.18004V2.00004C3.41333 1.82323 3.3431 1.65366 3.21807 1.52864C3.09305 1.40361 2.92348 1.33337 2.74667 1.33337C2.56986 1.33337 2.40029 1.40361 2.27526 1.52864C2.15024 1.65366 2.08 1.82323 2.08 2.00004V5.00004C2.08 5.17685 2.15024 5.34642 2.27526 5.47145C2.40029 5.59647 2.56986 5.66671 2.74667 5.66671H5.74667C5.92348 5.66671 6.09305 5.59647 6.21807 5.47145C6.3431 5.34642 6.41333 5.17685 6.41333 5.00004C6.41333 4.82323 6.3431 4.65366 6.21807 4.52864C6.09305 4.40361 5.92348 4.33337 5.74667 4.33337H4.14667C5.00385 3.43761 6.14634 2.86848 7.37769 2.72382C8.60904 2.57916 9.85232 2.86802 10.8938 3.54074C11.9352 4.21345 12.7098 5.22798 13.0842 6.4099C13.4587 7.59182 13.4097 8.86727 12.9456 10.017C12.4816 11.1667 11.6314 12.1188 10.5414 12.7096C9.45144 13.3004 8.18966 13.493 6.97304 13.2543C5.75642 13.0155 4.66098 12.3604 3.87506 11.4015C3.08914 10.4426 2.66186 9.23985 2.66667 8.00004C2.66667 7.82323 2.59643 7.65366 2.47141 7.52864C2.34638 7.40361 2.17681 7.33337 2 7.33337C1.82319 7.33337 1.65362 7.40361 1.5286 7.52864C1.40357 7.65366 1.33333 7.82323 1.33333 8.00004C1.33333 9.31858 1.72433 10.6075 2.45687 11.7038C3.18941 12.8002 4.2306 13.6547 5.44878 14.1592C6.66695 14.6638 8.0074 14.7958 9.3006 14.5386C10.5938 14.2814 11.7817 13.6464 12.714 12.7141C13.6464 11.7817 14.2813 10.5938 14.5386 9.30064C14.7958 8.00744 14.6638 6.66699 14.1592 5.44882C13.6546 4.23064 12.8001 3.18945 11.7038 2.45691C10.6075 1.72437 9.31854 1.33337 8 1.33337ZM8 5.33337C7.82319 5.33337 7.65362 5.40361 7.5286 5.52864C7.40357 5.65366 7.33333 5.82323 7.33333 6.00004V8.00004C7.33333 8.17685 7.40357 8.34642 7.5286 8.47145C7.65362 8.59647 7.82319 8.66671 8 8.66671H9.33333C9.51015 8.66671 9.67971 8.59647 9.80474 8.47145C9.92976 8.34642 10 8.17685 10 8.00004C10 7.82323 9.92976 7.65366 9.80474 7.52864C9.67971 7.40361 9.51015 7.33337 9.33333 7.33337H8.66667V6.00004C8.66667 5.82323 8.59643 5.65366 8.47141 5.52864C8.34638 5.40361 8.17681 5.33337 8 5.33337Z" fill="#1D7AFC"/>
</svg>
