<svg width="33" height="17" viewBox="0 0 33 17" fill="none" xmlns="http://www.w3.org/2000/svg">
<path d="M8.40625 0.40625C3.94836 0.40625 0.3125 4.04211 0.3125 8.5C0.3125 12.9624 3.94385 16.5938 8.40625 16.5938C11.7937 16.5938 13.8623 14.7329 15.4521 12.4385C14.9779 11.6752 14.5804 10.9209 14.1875 10.1982C12.7693 12.5424 11.1794 14.2812 8.40625 14.2812C5.21753 14.2812 2.625 11.6887 2.625 8.5C2.625 5.29321 5.19946 2.71875 8.40625 2.71875C10.2761 2.71875 11.464 3.38721 12.5615 4.52539C13.6591 5.66357 14.585 7.30762 15.5244 9.04199C16.4639 10.7764 17.4169 12.6011 18.8125 14.0645C20.2081 15.5278 22.1322 16.5938 24.5938 16.5938C29.0516 16.5938 32.6875 12.9579 32.6875 8.5C32.6875 4.0376 29.0562 0.40625 24.5938 0.40625C21.2244 0.40625 19.1422 2.20837 17.5479 4.45312C18.0221 5.20288 18.4557 5.93909 18.8486 6.65723C20.2578 4.38086 21.8296 2.71875 24.5938 2.71875C27.7825 2.71875 30.375 5.31128 30.375 8.5C30.375 11.7068 27.8005 14.2812 24.5938 14.2812C22.7555 14.2812 21.5992 13.6128 20.5107 12.4746C19.4222 11.3364 18.4918 9.69238 17.5479 7.95801C16.6039 6.22363 15.6328 4.39893 14.2236 2.93555C12.8145 1.47217 10.8904 0.40625 8.40625 0.40625Z" fill="#1D7AFC"/>
</svg>
