<svg width="14" height="14" viewBox="0 0 14 14" fill="none" xmlns="http://www.w3.org/2000/svg">
<path fill-rule="evenodd" clip-rule="evenodd" d="M14 11.9V2.1C14 0.940202 13.0598 0 11.9 0H2.1C0.940202 0 0 0.940202 0 2.1V11.9C0 13.0598 0.940202 14 2.1 14H11.9C13.0598 14 14 13.0598 14 11.9ZM6.2959 3.49999C6.2959 3.68664 6.37044 3.86555 6.50296 3.99699C6.70322 4.19891 7.00574 4.2596 7.26839 4.15055C7.53104 4.0415 7.70161 3.78438 7.69996 3.49999C7.70161 3.2156 7.53104 2.95848 7.26839 2.84943C7.00574 2.74038 6.70322 2.80107 6.50296 3.00299C6.37044 3.13443 6.2959 3.31334 6.2959 3.49999ZM12.6 2.1C12.6 1.7134 12.2866 1.4 11.9 1.4H2.1C1.7134 1.4 1.4 1.7134 1.4 2.1V11.9C1.4 12.2866 1.7134 12.6 2.1 12.6H11.9C12.2866 12.6 12.6 12.2866 12.6 11.9V2.1ZM7.70008 9.8H7.79808C8.18467 9.8 8.49807 10.1134 8.49807 10.5C8.49807 10.8866 8.18467 11.2 7.79808 11.2H6.20208C5.81548 11.2 5.50208 10.8866 5.50208 10.5C5.50208 10.1134 5.81548 9.8 6.20208 9.8H6.30008V6.3C5.91348 6.3 5.60008 5.9866 5.60008 5.6C5.60008 5.2134 5.91348 4.9 6.30008 4.9H7.00007C7.38667 4.9 7.70008 5.2134 7.70008 5.6V9.8Z" fill="#1D7AFC"/>
</svg>
