<svg width="17" height="16" viewBox="0 0 17 16" fill="none" xmlns="http://www.w3.org/2000/svg">
<path fill-rule="evenodd" clip-rule="evenodd" d="M8.49996 15.0001C8.8109 15.0001 9.52421 15.0001 10.6399 15.0001C10.6697 14.0166 10.8139 13.4758 11.0724 13.3777C13.7711 12.3538 15.6869 9.76582 15.6869 6.73511H1.31299C1.31299 9.70024 3.14681 12.2415 5.75339 13.3091C6.02588 13.4207 6.22942 13.9844 6.36399 15.0001C7.45271 15.0001 8.16469 15.0001 8.49996 15.0001Z" stroke="#1D7AFC" stroke-width="1.8" stroke-linejoin="round"/>
<path d="M5.06689 9.25842C5.19612 9.68529 5.36702 10.0377 5.57961 10.3157C5.78739 10.5875 6.04378 10.8395 6.34869 11.0718" stroke="#1D7AFC" stroke-width="1.8" stroke-linecap="round"/>
<path d="M8.93604 6.74497C10.2857 3.9594 11.0789 2.31736 11.3156 1.81877C11.6927 1.02467 12.4583 0.833581 13.1645 1.13527C13.8706 1.43696 14.1564 2.30049 13.8599 2.90234C13.6769 3.27405 13.0551 4.55226 11.9948 6.73692" stroke="#1D7AFC" stroke-width="1.8" stroke-linecap="round"/>
</svg>
