<svg width="24" height="24" viewBox="0 0 24 24" fill="none" xmlns="http://www.w3.org/2000/svg">
<path d="M9.49902 4.5C6.72346 4.50026 4.50026 6.72346 4.5 9.49902C4.5 12.2748 6.7233 14.4988 9.49902 14.499C12.275 14.499 14.499 12.275 14.499 9.49902C14.4988 6.7233 12.2748 4.5 9.49902 4.5ZM14.499 14.502L13.7568 13.7598L13.4053 14.0586C12.3516 14.9551 10.9848 15.499 9.49902 15.499C7.90803 15.4989 6.38185 14.8672 5.25684 13.7422C4.13171 12.6171 3.5 11.0902 3.5 9.49902C3.50013 7.90803 4.13182 6.38185 5.25684 5.25684C6.38185 4.13182 7.90803 3.50013 9.49902 3.5C11.0902 3.5 12.6171 4.13171 13.7422 5.25684C14.8672 6.38185 15.4989 7.90803 15.499 9.49902C15.499 10.9848 14.9551 12.3516 14.0586 13.4053L13.7598 13.7568L14.502 14.499H15.292L19.792 18.999L18.999 19.792L14.499 15.292V14.502Z" fill="black" stroke="white"/>
</svg>
