<svg width="24" height="24" viewBox="0 0 24 24" fill="none" xmlns="http://www.w3.org/2000/svg">
<path d="M9.49902 4.50085C6.72346 4.50111 4.50026 6.72431 4.5 9.49988C4.5 12.2757 6.7233 14.4996 9.49902 14.4999C12.275 14.4999 14.499 12.2758 14.499 9.49988C14.4988 6.72415 12.2748 4.50085 9.49902 4.50085ZM14.499 14.5028L13.7568 13.7606L13.4053 14.0594C12.3516 14.9559 10.9848 15.4999 9.49902 15.4999C7.90803 15.4997 6.38185 14.8681 5.25684 13.743C4.13171 12.6179 3.5 11.091 3.5 9.49988C3.50013 7.90888 4.13182 6.3827 5.25684 5.25769C6.38185 4.13268 7.90803 3.50098 9.49902 3.50085C11.0902 3.50085 12.6171 4.13256 13.7422 5.25769C14.8672 6.3827 15.4989 7.90889 15.499 9.49988C15.499 10.9856 14.9551 12.3525 14.0586 13.4061L13.7598 13.7577L14.502 14.4999H15.292L19.792 18.9999L18.999 19.7928L14.499 15.2928V14.5028Z" fill="black" stroke="#1D7AFC"/>
</svg>
