<svg width="40" height="39" viewBox="0 0 40 39" fill="none" xmlns="http://www.w3.org/2000/svg">
<path d="M35.925 16.25C35.275 14.3 33.325 13 31.375 13C28.6125 13 26.5 15.1125 26.5 17.875C26.5 19.9875 27.8 21.775 29.75 22.425V25.1875C29.75 29.25 26.5 32.5 22.4375 32.5C18.375 32.5 15.125 29.25 15.125 25.1875V24.2125C19.8375 23.4 23.25 19.3375 23.25 14.625V4.875C23.25 3.9 22.6 3.25 21.625 3.25H18.375C17.4 3.25 16.75 3.9 16.75 4.875C16.75 5.85 17.4 6.5 18.375 6.5H20V14.625C20 18.2 17.075 21.125 13.5 21.125C9.925 21.125 7 18.2 7 14.625V6.5H8.625C9.6 6.5 10.25 5.85 10.25 4.875C10.25 3.9 9.6 3.25 8.625 3.25H5.375C4.4 3.25 3.75 3.9 3.75 4.875V14.625C3.75 19.3375 7.1625 23.4 11.875 24.2125V25.1875C11.875 31.0375 16.5875 35.75 22.4375 35.75C28.2875 35.75 33 31.0375 33 25.1875V22.425C35.6 21.6125 36.9 18.85 35.925 16.25Z" fill="#5E4EAF"/>
</svg>
