<svg width="16" height="16" viewBox="0 0 16 16" fill="none" xmlns="http://www.w3.org/2000/svg">
<g clip-path="url(#clip0_170_3953)">
<path d="M12.2287 5.05699C12.6455 5.65476 12.9388 6.34506 13.0716 7.09089H14.6667V8.9091H13.0716C12.9388 9.65493 12.6455 10.3452 12.2287 10.943L13.3569 12.0712L12.0712 13.3569L10.943 12.2287C10.3452 12.6455 9.65493 12.9388 8.9091 13.0716V14.6667H7.0909V13.0716C6.34507 12.9388 5.65477 12.6455 5.057 12.2287L3.92877 13.3569L2.64313 12.0712L3.77133 10.943C3.35453 10.3452 3.06124 9.65493 2.92844 8.9091H1.33333V7.09089H2.92844C3.06124 6.34506 3.35453 5.65476 3.77133 5.05699L2.64313 3.92876L3.92877 2.64312L5.057 3.77133C5.65477 3.35453 6.34507 3.06123 7.0909 2.92844V1.33333H8.9091V2.92844C9.65493 3.06123 10.3452 3.35453 10.943 3.77133L12.0712 2.64312L13.3569 3.92876L12.2287 5.05699Z" fill="white" stroke="#1D7AFC" stroke-linejoin="round"/>
<path d="M8 9.66666C8.92047 9.66666 9.66667 8.92046 9.66667 7.99999C9.66667 7.07953 8.92047 6.33333 8 6.33333C7.07953 6.33333 6.33333 7.07953 6.33333 7.99999C6.33333 8.92046 7.07953 9.66666 8 9.66666Z" stroke="#1D7AFC" stroke-linejoin="round"/>
</g>
<defs>
<clipPath id="clip0_170_3953">
<rect width="16" height="16" fill="white"/>
</clipPath>
</defs>
</svg>
