<svg width="31" height="25" viewBox="0 0 31 25" fill="none" xmlns="http://www.w3.org/2000/svg">
<path d="M0.5 0.961914V3.05982H18.3125V18.7941H12.541C12.1235 16.9912 10.6733 15.6472 8.9375 15.6472C7.20166 15.6472 5.75147 16.9912 5.33398 18.7941H4.25V13.5493H2.375V20.892H5.33398C5.75147 22.6949 7.20166 24.0388 8.9375 24.0388C10.6733 24.0388 12.1235 22.6949 12.541 20.892H20.334C20.7515 22.6949 22.2017 24.0388 23.9375 24.0388C25.6733 24.0388 27.1235 22.6949 27.541 20.892H30.5V12.3365L30.4414 12.1726L28.5664 5.87887L28.3613 5.15772H20.1875V0.961914H0.5ZM1.4375 5.15772V7.25562H9.875V5.15772H1.4375ZM20.1875 7.25562H27.0137L28.625 12.6315V18.7941H27.541C27.1235 16.9912 25.6733 15.6472 23.9375 15.6472C22.2017 15.6472 20.7515 16.9912 20.334 18.7941H20.1875V7.25562ZM2.375 9.35352V11.4514H8V9.35352H2.375ZM8.9375 17.7451C9.98486 17.7451 10.8125 18.6712 10.8125 19.843C10.8125 21.0149 9.98486 21.9409 8.9375 21.9409C7.89014 21.9409 7.0625 21.0149 7.0625 19.843C7.0625 18.6712 7.89014 17.7451 8.9375 17.7451ZM23.9375 17.7451C24.9849 17.7451 25.8125 18.6712 25.8125 19.843C25.8125 21.0149 24.9849 21.9409 23.9375 21.9409C22.8901 21.9409 22.0625 21.0149 22.0625 19.843C22.0625 18.6712 22.8901 17.7451 23.9375 17.7451Z" fill="#22A06B"/>
</svg>
