<svg width="24" height="17" viewBox="0 0 24 17" fill="none" xmlns="http://www.w3.org/2000/svg">
<path d="M0 0.5V2H14.25V13.25H9.63281C9.29883 11.9609 8.13867 11 6.75 11C5.36133 11 4.20117 11.9609 3.86719 13.25H3V9.5H1.5V14.75H3.86719C4.20117 16.0391 5.36133 17 6.75 17C8.13867 17 9.29883 16.0391 9.63281 14.75H15.8672C16.2012 16.0391 17.3613 17 18.75 17C20.1387 17 21.2988 16.0391 21.6328 14.75H24V8.63281L23.9531 8.51562L22.4531 4.01562L22.2891 3.5H15.75V0.5H0ZM0.75 3.5V5H7.5V3.5H0.75ZM15.75 5H21.2109L22.5 8.84375V13.25H21.6328C21.2988 11.9609 20.1387 11 18.75 11C17.3613 11 16.2012 11.9609 15.8672 13.25H15.75V5ZM1.5 6.5V8H6V6.5H1.5ZM6.75 12.5C7.58789 12.5 8.25 13.1621 8.25 14C8.25 14.8379 7.58789 15.5 6.75 15.5C5.91211 15.5 5.25 14.8379 5.25 14C5.25 13.1621 5.91211 12.5 6.75 12.5ZM18.75 12.5C19.5879 12.5 20.25 13.1621 20.25 14C20.25 14.8379 19.5879 15.5 18.75 15.5C17.9121 15.5 17.25 14.8379 17.25 14C17.25 13.1621 17.9121 12.5 18.75 12.5Z" fill="#1D7AFC"/>
</svg>
