<svg width="40" height="39" viewBox="0 0 40 39" fill="none" xmlns="http://www.w3.org/2000/svg">
<g clip-path="url(#clip0_154_955)">
<path d="M0.5 3.65625C0.5 3.33302 0.628404 3.02302 0.856964 2.79446C1.08552 2.5659 1.39552 2.4375 1.71875 2.4375H5.375C5.64686 2.43758 5.91088 2.52854 6.12509 2.69594C6.3393 2.86333 6.4914 3.09754 6.55719 3.36131L7.54438 7.3125H35.8438C36.024 7.31261 36.202 7.35269 36.3649 7.42987C36.5277 7.50704 36.6715 7.61939 36.7857 7.7588C36.8999 7.89822 36.9818 8.06124 37.0255 8.23612C37.0691 8.411 37.0735 8.59338 37.0381 8.77012L34.6006 20.9576C34.5473 21.2234 34.4069 21.4638 34.2016 21.6408C33.9963 21.8178 33.7379 21.9214 33.4672 21.9351L10.562 23.0856L11.2616 26.8125H32.1875C32.5107 26.8125 32.8207 26.9409 33.0493 27.1695C33.2778 27.398 33.4062 27.708 33.4062 28.0312C33.4062 28.3545 33.2778 28.6645 33.0493 28.893C32.8207 29.1216 32.5107 29.25 32.1875 29.25H10.25C9.96587 29.2497 9.69075 29.1502 9.47222 28.9686C9.25369 28.787 9.10547 28.5348 9.05319 28.2555L5.39937 8.79206L4.42438 4.875H1.71875C1.39552 4.875 1.08552 4.7466 0.856964 4.51804C0.628404 4.28948 0.5 3.97948 0.5 3.65625ZM8.06112 9.75L10.1086 20.6676L32.3971 19.5488L34.3569 9.75H8.06112ZM12.6875 29.25C11.3946 29.25 10.1546 29.7636 9.24035 30.6779C8.32611 31.5921 7.8125 32.8321 7.8125 34.125C7.8125 35.4179 8.32611 36.6579 9.24035 37.5721C10.1546 38.4864 11.3946 39 12.6875 39C13.9804 39 15.2204 38.4864 16.1346 37.5721C17.0489 36.6579 17.5625 35.4179 17.5625 34.125C17.5625 32.8321 17.0489 31.5921 16.1346 30.6779C15.2204 29.7636 13.9804 29.25 12.6875 29.25ZM29.75 29.25C28.4571 29.25 27.2171 29.7636 26.3029 30.6779C25.3886 31.5921 24.875 32.8321 24.875 34.125C24.875 35.4179 25.3886 36.6579 26.3029 37.5721C27.2171 38.4864 28.4571 39 29.75 39C31.0429 39 32.2829 38.4864 33.1971 37.5721C34.1114 36.6579 34.625 35.4179 34.625 34.125C34.625 32.8321 34.1114 31.5921 33.1971 30.6779C32.2829 29.7636 31.0429 29.25 29.75 29.25ZM12.6875 31.6875C13.334 31.6875 13.954 31.9443 14.4111 32.4014C14.8682 32.8585 15.125 33.4785 15.125 34.125C15.125 34.7715 14.8682 35.3915 14.4111 35.8486C13.954 36.3057 13.334 36.5625 12.6875 36.5625C12.041 36.5625 11.421 36.3057 10.9639 35.8486C10.5068 35.3915 10.25 34.7715 10.25 34.125C10.25 33.4785 10.5068 32.8585 10.9639 32.4014C11.421 31.9443 12.041 31.6875 12.6875 31.6875ZM29.75 31.6875C30.3965 31.6875 31.0165 31.9443 31.4736 32.4014C31.9307 32.8585 32.1875 33.4785 32.1875 34.125C32.1875 34.7715 31.9307 35.3915 31.4736 35.8486C31.0165 36.3057 30.3965 36.5625 29.75 36.5625C29.1035 36.5625 28.4835 36.3057 28.0264 35.8486C27.5693 35.3915 27.3125 34.7715 27.3125 34.125C27.3125 33.4785 27.5693 32.8585 28.0264 32.4014C28.4835 31.9443 29.1035 31.6875 29.75 31.6875Z" fill="#1D6E4F"/>
</g>
<defs>
<clipPath id="clip0_154_955">
<rect width="39" height="39" fill="white" transform="translate(0.5)"/>
</clipPath>
</defs>
</svg>
