<svg width="18" height="18" viewBox="0 0 18 18" fill="none" xmlns="http://www.w3.org/2000/svg">
<path d="M13.9584 5.45841H11.8334V4.75008C11.8334 3.99863 11.5349 3.27797 11.0035 2.74661C10.4722 2.21526 9.75149 1.91675 9.00004 1.91675C8.24859 1.91675 7.52792 2.21526 6.99657 2.74661C6.46522 3.27797 6.16671 3.99863 6.16671 4.75008V5.45841H4.04171C3.85385 5.45841 3.67368 5.53304 3.54084 5.66588C3.408 5.79872 3.33337 5.97889 3.33337 6.16675V13.9584C3.33337 14.522 3.55726 15.0625 3.95577 15.461C4.35429 15.8595 4.89479 16.0834 5.45837 16.0834H12.5417C13.1053 16.0834 13.6458 15.8595 14.0443 15.461C14.4428 15.0625 14.6667 14.522 14.6667 13.9584V6.16675C14.6667 5.97889 14.5921 5.79872 14.4592 5.66588C14.3264 5.53304 14.1462 5.45841 13.9584 5.45841ZM7.58337 4.75008C7.58337 4.37436 7.73263 4.01402 7.99831 3.74835C8.26398 3.48267 8.62432 3.33341 9.00004 3.33341C9.37576 3.33341 9.7361 3.48267 10.0018 3.74835C10.2675 4.01402 10.4167 4.37436 10.4167 4.75008V5.45841H7.58337V4.75008ZM13.25 13.9584C13.25 14.1463 13.1754 14.3264 13.0426 14.4593C12.9097 14.5921 12.7296 14.6667 12.5417 14.6667H5.45837C5.27051 14.6667 5.09035 14.5921 4.95751 14.4593C4.82467 14.3264 4.75004 14.1463 4.75004 13.9584V6.87508H6.16671V7.58341C6.16671 7.77128 6.24134 7.95144 6.37417 8.08428C6.50701 8.21712 6.68718 8.29175 6.87504 8.29175C7.0629 8.29175 7.24307 8.21712 7.37591 8.08428C7.50875 7.95144 7.58337 7.77128 7.58337 7.58341V6.87508H10.4167V7.58341C10.4167 7.77128 10.4913 7.95144 10.6242 8.08428C10.757 8.21712 10.9372 8.29175 11.125 8.29175C11.3129 8.29175 11.4931 8.21712 11.6259 8.08428C11.7587 7.95144 11.8334 7.77128 11.8334 7.58341V6.87508H13.25V13.9584Z" fill="white"/>
</svg>
