<svg width="36" height="35" viewBox="0 0 36 35" fill="none" xmlns="http://www.w3.org/2000/svg">
<g clip-path="url(#clip0_7_9107)">
<path d="M18.2758 17.9684L15.2158 10.2342C15.1699 10.1181 15.0889 10.0183 14.9834 9.94793C14.878 9.87753 14.7531 9.83984 14.6252 9.83984C14.4973 9.83984 14.3724 9.87753 14.2669 9.94793C14.1615 10.0183 14.0805 10.1181 14.0345 10.2342L10.9745 17.9684C10.9428 18.0487 10.894 18.1217 10.8314 18.1826C10.7687 18.2435 10.6937 18.2909 10.611 18.3218L2.65587 21.2968C2.53649 21.3414 2.43383 21.4202 2.36142 21.5227C2.289 21.6252 2.25024 21.7467 2.25024 21.871C2.25024 21.9954 2.289 22.1168 2.36142 22.2193C2.43383 22.3218 2.53649 22.4006 2.65587 22.4452L10.611 25.4202C10.6937 25.4511 10.7687 25.4986 10.8314 25.5594C10.894 25.6203 10.9428 25.6933 10.9745 25.7737L14.0345 33.5078C14.0805 33.6239 14.1615 33.7237 14.2669 33.7941C14.3724 33.8645 14.4973 33.9022 14.6252 33.9022C14.7531 33.9022 14.878 33.8645 14.9834 33.7941C15.0889 33.7237 15.1699 33.6239 15.2158 33.5078L18.2758 25.7737C18.3076 25.6933 18.3564 25.6203 18.419 25.5594C18.4816 25.4986 18.5567 25.4511 18.6393 25.4202L26.5945 22.4452C26.7138 22.4006 26.8165 22.3218 26.8889 22.2193C26.9613 22.1168 27.0001 21.9954 27.0001 21.871C27.0001 21.7467 26.9613 21.6252 26.8889 21.5227C26.8165 21.4202 26.7138 21.3414 26.5945 21.2968L18.6393 18.3218C18.5567 18.2909 18.4816 18.2435 18.419 18.1826C18.3564 18.1217 18.3076 18.0487 18.2758 17.9684Z" stroke="#8270DB" stroke-width="2" stroke-linecap="round" stroke-linejoin="round"/>
<path d="M7.59399 4.64453L6.18774 1.08984L4.78149 4.64453L1.12524 6.01172L4.78149 7.37891L6.18774 10.9336L7.59399 7.37891L11.2502 6.01172L7.59399 4.64453Z" stroke="#8270DB" stroke-width="2" stroke-linecap="round" stroke-linejoin="round"/>
<path d="M29.9967 8.0167L28.1215 3.27734L26.2462 8.0167L21.3715 9.83984L26.2462 11.663L28.1215 16.4023L29.9967 11.663L34.8715 9.83984L29.9967 8.0167Z" stroke="#8270DB" stroke-width="2" stroke-linecap="round" stroke-linejoin="round"/>
</g>
<defs>
<clipPath id="clip0_7_9107">
<rect width="36" height="35" fill="white"/>
</clipPath>
</defs>
</svg>
