<svg width="16" height="16" viewBox="0 0 16 16" fill="none" xmlns="http://www.w3.org/2000/svg">
<g clip-path="url(#clip0_170_3957)">
<path d="M8.12255 8.2141L6.76255 4.67848C6.74214 4.62542 6.70613 4.57979 6.65927 4.54761C6.61241 4.51543 6.5569 4.4982 6.50005 4.4982C6.4432 4.4982 6.38769 4.51543 6.34083 4.54761C6.29397 4.57979 6.25796 4.62542 6.23755 4.67848L4.87755 8.2141C4.86342 8.25084 4.84175 8.2842 4.81392 8.31203C4.78608 8.33986 4.75272 8.36154 4.71599 8.37566L1.18036 9.73567C1.12731 9.75607 1.08168 9.79208 1.0495 9.83894C1.01731 9.8858 1.00009 9.94132 1.00009 9.99817C1.00009 10.055 1.01731 10.1105 1.0495 10.1574C1.08168 10.2042 1.12731 10.2403 1.18036 10.2607L4.71599 11.6207C4.75272 11.6348 4.78608 11.6565 4.81392 11.6843C4.84175 11.7121 4.86342 11.7455 4.87755 11.7822L6.23755 15.3179C6.25796 15.3709 6.29397 15.4165 6.34083 15.4487C6.38769 15.4809 6.4432 15.4981 6.50005 15.4981C6.5569 15.4981 6.61241 15.4809 6.65927 15.4487C6.70613 15.4165 6.74214 15.3709 6.76255 15.3179L8.12255 11.7822C8.13668 11.7455 8.15836 11.7121 8.18619 11.6843C8.21402 11.6565 8.24738 11.6348 8.28411 11.6207L11.8197 10.2607C11.8728 10.2403 11.9184 10.2042 11.9506 10.1574C11.9828 10.1105 12 10.055 12 9.99817C12 9.94132 11.9828 9.8858 11.9506 9.83894C11.9184 9.79208 11.8728 9.75607 11.8197 9.73567L8.28411 8.37566C8.24738 8.36154 8.21402 8.33986 8.18619 8.31203C8.15836 8.2842 8.13668 8.25084 8.12255 8.2141Z" fill="white" stroke="#1D7AFC" stroke-linecap="round" stroke-linejoin="round"/>
<path d="M3.3751 2.1232L2.7501 0.498199L2.1251 2.1232L0.500103 2.7482L2.1251 3.3732L2.7501 4.9982L3.3751 3.3732L5.0001 2.7482L3.3751 2.1232Z" stroke="#1D7AFC" stroke-linecap="round" stroke-linejoin="round"/>
<path d="M13.3319 3.66473L12.4984 1.49817L11.665 3.66473L9.49842 4.49817L11.665 5.33161L12.4984 7.49817L13.3319 5.33161L15.4984 4.49817L13.3319 3.66473Z" stroke="#1D7AFC" stroke-linecap="round" stroke-linejoin="round"/>
</g>
<defs>
<clipPath id="clip0_170_3957">
<rect width="16" height="16" fill="white"/>
</clipPath>
</defs>
</svg>
