<svg width="15" height="16" viewBox="0 0 15 16" fill="none" xmlns="http://www.w3.org/2000/svg">
<path d="M12.9444 0H2.05556C1.643 0 1.24733 0.168571 0.955612 0.468629C0.663888 0.768687 0.5 1.17565 0.5 1.6V3.2C0.5 3.62435 0.663888 4.03131 0.955612 4.33137C1.24733 4.63143 1.643 4.8 2.05556 4.8V13.6C2.05556 14.2365 2.30139 14.847 2.73897 15.2971C3.17656 15.7471 3.77005 16 4.38889 16H10.6111C11.2299 16 11.8234 15.7471 12.261 15.2971C12.6986 14.847 12.9444 14.2365 12.9444 13.6V4.8C13.357 4.8 13.7527 4.63143 14.0444 4.33137C14.3361 4.03131 14.5 3.62435 14.5 3.2V1.6C14.5 1.17565 14.3361 0.768687 14.0444 0.468629C13.7527 0.168571 13.357 0 12.9444 0ZM11.3889 11.2H6.72222V8H11.3889V11.2ZM11.3889 6.4H5.94444C5.73816 6.4 5.54033 6.48429 5.39447 6.63432C5.24861 6.78434 5.16667 6.98783 5.16667 7.2V12C5.16667 12.2122 5.24861 12.4157 5.39447 12.5657C5.54033 12.7157 5.73816 12.8 5.94444 12.8H11.3889V13.6C11.3889 13.8122 11.3069 14.0157 11.1611 14.1657C11.0152 14.3157 10.8174 14.4 10.6111 14.4H4.38889C4.18261 14.4 3.98478 14.3157 3.83892 14.1657C3.69306 14.0157 3.61111 13.8122 3.61111 13.6V4.8H11.3889V6.4ZM2.05556 3.2V1.6H12.9444V3.2H2.05556Z" fill="#1D7AFC"/>
</svg>
