<svg width="24" height="24" viewBox="0 0 24 24" fill="none" xmlns="http://www.w3.org/2000/svg">
<path d="M21.0005 6.72949C20.9805 6.72949 20.9505 6.72949 20.9205 6.72949C15.6305 6.19949 10.3505 5.99949 5.12046 6.52949L3.08046 6.72949C2.66046 6.76949 2.29046 6.46949 2.25046 6.04949C2.21046 5.62949 2.51046 5.26949 2.92046 5.22949L4.96046 5.02949C10.2805 4.48949 15.6705 4.69949 21.0705 5.22949C21.4805 5.26949 21.7805 5.63949 21.7405 6.04949C21.7105 6.43949 21.3805 6.72949 21.0005 6.72949Z" fill="#FF6467"/>
<path d="M8.50074 5.72C8.46074 5.72 8.42074 5.72 8.37074 5.71C7.97074 5.64 7.69074 5.25 7.76074 4.85L7.98074 3.54C8.14074 2.58 8.36074 1.25 10.6907 1.25H13.3107C15.6507 1.25 15.8707 2.63 16.0207 3.55L16.2407 4.85C16.3107 5.26 16.0307 5.65 15.6307 5.71C15.2207 5.78 14.8307 5.5 14.7707 5.1L14.5507 3.8C14.4107 2.93 14.3807 2.76 13.3207 2.76H10.7007C9.64074 2.76 9.62074 2.9 9.47074 3.79L9.24074 5.09C9.18074 5.46 8.86074 5.72 8.50074 5.72Z" fill="#FF6467"/>
<path d="M15.2088 22.7501H8.7888C5.2988 22.7501 5.1588 20.8201 5.0488 19.2601L4.3988 9.19007C4.3688 8.78007 4.6888 8.42008 5.0988 8.39008C5.5188 8.37008 5.8688 8.68008 5.8988 9.09008L6.5488 19.1601C6.6588 20.6801 6.6988 21.2501 8.7888 21.2501H15.2088C17.3088 21.2501 17.3488 20.6801 17.4488 19.1601L18.0988 9.09008C18.1288 8.68008 18.4888 8.37008 18.8988 8.39008C19.3088 8.42008 19.6288 8.77007 19.5988 9.19007L18.9488 19.2601C18.8388 20.8201 18.6988 22.7501 15.2088 22.7501Z" fill="#FF6467"/>
<path d="M13.6612 17.25H10.3312C9.92124 17.25 9.58124 16.91 9.58124 16.5C9.58124 16.09 9.92124 15.75 10.3312 15.75H13.6612C14.0712 15.75 14.4112 16.09 14.4112 16.5C14.4112 16.91 14.0712 17.25 13.6612 17.25Z" fill="#FF6467"/>
<path d="M14.5 13.25H9.5C9.09 13.25 8.75 12.91 8.75 12.5C8.75 12.09 9.09 11.75 9.5 11.75H14.5C14.91 11.75 15.25 12.09 15.25 12.5C15.25 12.91 14.91 13.25 14.5 13.25Z" fill="#FF6467"/>
</svg>
