<svg width="15" height="16" viewBox="0 0 15 16" fill="none" xmlns="http://www.w3.org/2000/svg">
<path d="M13.125 4.2063C13.1125 4.2063 13.0937 4.2063 13.075 4.2063C9.76873 3.87505 6.46873 3.75005 3.19998 4.0813L1.92498 4.2063C1.66248 4.2313 1.43123 4.0438 1.40623 3.7813C1.38123 3.5188 1.56873 3.2938 1.82498 3.2688L3.09998 3.1438C6.42498 2.8063 9.79373 2.93755 13.1687 3.2688C13.425 3.2938 13.6125 3.52505 13.5875 3.7813C13.5687 4.02505 13.3625 4.2063 13.125 4.2063Z" fill="#E34935"/>
<path d="M5.31248 3.575C5.28748 3.575 5.26248 3.575 5.23123 3.56875C4.98123 3.525 4.80623 3.28125 4.84998 3.03125L4.98748 2.2125C5.08748 1.6125 5.22498 0.78125 6.68123 0.78125H8.31873C9.78123 0.78125 9.91873 1.64375 10.0125 2.21875L10.15 3.03125C10.1937 3.2875 10.0187 3.53125 9.76873 3.56875C9.51248 3.6125 9.26873 3.4375 9.23123 3.1875L9.09373 2.375C9.00623 1.83125 8.98748 1.725 8.32498 1.725H6.68748C6.02498 1.725 6.01248 1.8125 5.91873 2.36875L5.77498 3.18125C5.73748 3.4125 5.53748 3.575 5.31248 3.575Z" fill="#E34935"/>
<path d="M9.50625 14.2187H5.49375C3.3125 14.2187 3.225 13.0125 3.15625 12.0375L2.75 5.74374C2.73125 5.48749 2.93125 5.26249 3.1875 5.24374C3.45 5.23124 3.66875 5.42499 3.6875 5.68124L4.09375 11.975C4.1625 12.925 4.1875 13.2812 5.49375 13.2812H9.50625C10.8187 13.2812 10.8437 12.925 10.9062 11.975L11.3125 5.68124C11.3312 5.42499 11.5562 5.23124 11.8125 5.24374C12.0687 5.26249 12.2687 5.48124 12.25 5.74374L11.8437 12.0375C11.775 13.0125 11.6875 14.2187 9.50625 14.2187Z" fill="#E34935"/>
<path d="M8.53749 10.7812H6.45624C6.19999 10.7812 5.98749 10.5688 5.98749 10.3125C5.98749 10.0563 6.19999 9.84375 6.45624 9.84375H8.53749C8.79374 9.84375 9.00624 10.0563 9.00624 10.3125C9.00624 10.5688 8.79374 10.7812 8.53749 10.7812Z" fill="#E34935"/>
<path d="M9.0625 8.28125H5.9375C5.68125 8.28125 5.46875 8.06875 5.46875 7.8125C5.46875 7.55625 5.68125 7.34375 5.9375 7.34375H9.0625C9.31875 7.34375 9.53125 7.55625 9.53125 7.8125C9.53125 8.06875 9.31875 8.28125 9.0625 8.28125Z" fill="#E34935"/>
</svg>
