<svg width="21" height="16" viewBox="0 0 21 16" fill="none" xmlns="http://www.w3.org/2000/svg">
<path d="M0.5 0.5H15.5V2.16667C14.5833 2.16667 13.8333 2.91667 13.8333 3.83333V13.8333C13.8333 14.75 13.0833 15.5 12.1667 15.5H3.83333C2.91667 15.5 2.16667 14.75 2.16667 13.8333V3.83333C2.16667 2.91667 1.41667 2.16667 0.5 2.16667V0.5ZM3.83333 5.5V6.33333H6.33333V5.5H3.83333ZM3.83333 7.16667V8H6.33333V7.16667H3.83333ZM6.33333 11.3333V10.5H3.83333V11.3333H6.33333ZM8 9.66667V8.83333H3.83333V9.66667H8ZM8 4.66667V3.83333H3.83333V4.66667H8ZM18.4167 10.9167V12.1667H17.1667V10.9167H18.4167ZM16.75 6.75H15.5V6.33333C15.5 4.95 16.6167 3.83333 18 3.83333C19.3833 3.83333 20.5 4.95 20.5 6.33333C20.5 7.14167 20.0833 7.9 19.425 8.34167L19.175 8.5C18.7 8.83333 18.4167 9.35 18.4167 9.91667V10.0833H17.1667V9.91667C17.1667 8.925 17.6667 8 18.4917 7.45833L18.7333 7.3C19.0583 7.08333 19.25 6.725 19.25 6.33333C19.25 5.65 18.6917 5.08333 18 5.08333C17.3083 5.08333 16.75 5.64167 16.75 6.33333V6.75Z" fill="#1D7AFC"/>
</svg>
