<svg width="746" height="275" viewBox="0 0 746 275" fill="none" xmlns="http://www.w3.org/2000/svg">
<g filter="url(#filter0_d_170_3250)">
<path d="M723.758 260.904L124.283 260.564H109.079C107.241 260.564 105.407 260.733 103.6 261.068L79.7675 265.495C77.9604 265.831 76.1263 266 74.2883 266H20.5199C18.3473 266 16.1988 265.544 14.2136 264.661C8.61058 262.169 5 256.612 5 250.48V140.446C5 136.73 7.02295 133.309 10.2788 131.519C13.5347 129.729 15.5576 126.308 15.5576 122.592V76.3709C15.5576 72.7587 13.5129 69.4578 10.2788 67.8489C7.0447 66.2401 5 62.9391 5 59.327V36.4364C5 19.8678 18.4314 6.43637 35 6.43637H614.993C617.414 6.43637 619.827 6.14328 622.177 5.5635L637.141 1.87287C639.491 1.29309 641.904 1 644.325 1H704C720.569 1 734 14.4315 734 31V110.272C734 111.42 734.14 112.563 734.417 113.677L734.998 116.018C735.39 117.595 736.304 118.994 737.592 119.987C739.32 121.319 740.351 123.363 740.396 125.545L741 155.01V186.898V198.294L740.325 230.084C740.325 232.984 739.613 235.838 738.25 238.398L736.232 242.187C735.416 243.72 734.841 245.37 734.529 247.078L733.483 252.796C732.624 257.492 728.532 260.904 723.758 260.904Z" fill="url(#paint0_radial_170_3250)" fill-opacity="0.2" shape-rendering="crispEdges"/>
<path d="M723.758 260.904L124.283 260.564H109.079C107.241 260.564 105.407 260.733 103.6 261.068L79.7675 265.495C77.9604 265.831 76.1263 266 74.2883 266H20.5199C18.3473 266 16.1988 265.544 14.2136 264.661C8.61058 262.169 5 256.612 5 250.48V140.446C5 136.73 7.02295 133.309 10.2788 131.519C13.5347 129.729 15.5576 126.308 15.5576 122.592V76.3709C15.5576 72.7587 13.5129 69.4578 10.2788 67.8489C7.0447 66.2401 5 62.9391 5 59.327V36.4364C5 19.8678 18.4314 6.43637 35 6.43637H614.993C617.414 6.43637 619.827 6.14328 622.177 5.5635L637.141 1.87287C639.491 1.29309 641.904 1 644.325 1H704C720.569 1 734 14.4315 734 31V110.272C734 111.42 734.14 112.563 734.417 113.677L734.998 116.018C735.39 117.595 736.304 118.994 737.592 119.987C739.32 121.319 740.351 123.363 740.396 125.545L741 155.01V186.898V198.294L740.325 230.084C740.325 232.984 739.613 235.838 738.25 238.398L736.232 242.187C735.416 243.72 734.841 245.37 734.529 247.078L733.483 252.796C732.624 257.492 728.532 260.904 723.758 260.904Z" stroke="#E9F5FE" shape-rendering="crispEdges"/>
</g>
<defs>
<filter id="filter0_d_170_3250" x="0.5" y="0.5" width="745" height="274" filterUnits="userSpaceOnUse" color-interpolation-filters="sRGB">
<feFlood flood-opacity="0" result="BackgroundImageFix"/>
<feColorMatrix in="SourceAlpha" type="matrix" values="0 0 0 0 0 0 0 0 0 0 0 0 0 0 0 0 0 0 127 0" result="hardAlpha"/>
<feOffset dy="4"/>
<feGaussianBlur stdDeviation="2"/>
<feComposite in2="hardAlpha" operator="out"/>
<feColorMatrix type="matrix" values="0 0 0 0 0.913725 0 0 0 0 0.94902 0 0 0 0 1 0 0 0 1 0"/>
<feBlend mode="normal" in2="BackgroundImageFix" result="effect1_dropShadow_170_3250"/>
<feBlend mode="normal" in="SourceGraphic" in2="effect1_dropShadow_170_3250" result="shape"/>
</filter>
<radialGradient id="paint0_radial_170_3250" cx="0" cy="0" r="1" gradientTransform="matrix(-445.731 286.592 -2159.73 -529.171 341.048 -28.7723)" gradientUnits="userSpaceOnUse">
<stop stop-color="white"/>
<stop offset="1" stop-color="white"/>
</radialGradient>
</defs>
</svg>
