<svg width="420" height="531" viewBox="0 0 420 531" fill="none" xmlns="http://www.w3.org/2000/svg">
<g filter="url(#filter0_d_170_3278)">
<path d="M383.8 511.312H73.2627H71.738C66.0192 511.312 60.4196 512.946 55.5989 516.023L53.6151 517.289C48.7944 520.365 43.1948 522 37.4761 522H20.2291C15.0916 522 10.3004 519.41 7.48688 515.111C5.86426 512.632 5 509.734 5 506.771V269.768C5 265.528 6.03712 261.352 8.02094 257.605C10.0048 253.858 11.0419 249.682 11.0419 245.442V143.572C11.0419 139.655 9.99921 135.808 8.02094 132.428C6.04268 129.047 5 125.2 5 121.283V41.6881C5 25.1196 18.4315 11.6881 35 11.6881H347.905C353.242 11.6881 358.406 9.79442 362.478 6.34405C366.55 2.89368 371.714 1 377.051 1H385C401.569 1 415 14.4314 415 31V301.629C415 305.28 414.334 308.899 413.034 312.311L411.03 317.57C409.73 320.982 409.064 324.601 409.064 328.252V372.443C409.064 376.557 410.069 380.608 411.991 384.245C413.965 387.981 414.971 392.152 414.916 396.378L413.798 481.705C413.583 498.119 400.216 511.312 383.8 511.312Z" fill="url(#paint0_radial_170_3278)" fill-opacity="0.2" shape-rendering="crispEdges"/>
<path d="M383.8 511.312H73.2627H71.738C66.0192 511.312 60.4196 512.946 55.5989 516.023L53.6151 517.289C48.7944 520.365 43.1948 522 37.4761 522H20.2291C15.0916 522 10.3004 519.41 7.48688 515.111C5.86426 512.632 5 509.734 5 506.771V269.768C5 265.528 6.03712 261.352 8.02094 257.605C10.0048 253.858 11.0419 249.682 11.0419 245.442V143.572C11.0419 139.655 9.99921 135.808 8.02094 132.428C6.04268 129.047 5 125.2 5 121.283V41.6881C5 25.1196 18.4315 11.6881 35 11.6881H347.905C353.242 11.6881 358.406 9.79442 362.478 6.34405C366.55 2.89368 371.714 1 377.051 1H385C401.569 1 415 14.4314 415 31V301.629C415 305.28 414.334 308.899 413.034 312.311L411.03 317.57C409.73 320.982 409.064 324.601 409.064 328.252V372.443C409.064 376.557 410.069 380.608 411.991 384.245C413.965 387.981 414.971 392.152 414.916 396.378L413.798 481.705C413.583 498.119 400.216 511.312 383.8 511.312Z" stroke="#E9F5FE" shape-rendering="crispEdges"/>
</g>
<defs>
<filter id="filter0_d_170_3278" x="0.5" y="0.5" width="419" height="530" filterUnits="userSpaceOnUse" color-interpolation-filters="sRGB">
<feFlood flood-opacity="0" result="BackgroundImageFix"/>
<feColorMatrix in="SourceAlpha" type="matrix" values="0 0 0 0 0 0 0 0 0 0 0 0 0 0 0 0 0 0 127 0" result="hardAlpha"/>
<feOffset dy="4"/>
<feGaussianBlur stdDeviation="2"/>
<feComposite in2="hardAlpha" operator="out"/>
<feColorMatrix type="matrix" values="0 0 0 0 0.913725 0 0 0 0 0.94902 0 0 0 0 1 0 0 0 1 0"/>
<feBlend mode="normal" in2="BackgroundImageFix" result="effect1_dropShadow_170_3278"/>
<feBlend mode="normal" in="SourceGraphic" in2="effect1_dropShadow_170_3278" result="shape"/>
</filter>
<radialGradient id="paint0_radial_170_3278" cx="0" cy="0" r="1" gradientTransform="matrix(-255.081 563.45 -1235.96 -1040.37 197.313 -57.5335)" gradientUnits="userSpaceOnUse">
<stop stop-color="white"/>
<stop offset="1" stop-color="white"/>
</radialGradient>
</defs>
</svg>
