<svg width="40" height="39" viewBox="0 0 40 39" fill="none" xmlns="http://www.w3.org/2000/svg">
<path d="M10.25 3.25C9.38805 3.25 8.5614 3.59241 7.9519 4.2019C7.34241 4.8114 7 5.63805 7 6.5V32.5C7 33.362 7.34241 34.1886 7.9519 34.7981C8.5614 35.4076 9.38805 35.75 10.25 35.75H29.75C30.612 35.75 31.4386 35.4076 32.0481 34.7981C32.6576 34.1886 33 33.362 33 32.5V13L23.25 3.25H10.25ZM10.25 6.5H21.625V14.625H29.75V32.5H10.25V6.5ZM13.5 19.5V22.75H26.5V19.5H13.5ZM13.5 26V29.25H21.625V26H13.5Z" fill="#0056C9"/>
</svg>
